<svg viewBox="0 0 90 90" fill="none" xmlns="http://www.w3.org/2000/svg"><rect width="90" height="90" rx="25" fill="#6366F1"/><path d="M63.312 29.16c.256.48.4.912.432 1.296.064.384.096.944.096 1.68v26.64c0 2.208-.608 3.504-1.824 3.888-.608.192-1.376.288-2.304.288-.928 0-1.664-.08-2.208-.24-.544-.16-.96-.352-1.248-.576-.288-.224-.512-.544-.672-.96-.16-.544-.24-1.376-.24-2.496V42.6c-.8.992-1.968 2.576-3.504 4.752-1.536 2.144-2.512 3.488-2.928 4.032-.416.544-.704.928-.864 1.152-.16.192-.56.48-1.2.864a3.951 3.951 0 0 1-2.016.528c-.704 0-1.36-.16-1.968-.48-.576-.352-.992-.688-1.248-1.008l-.384-.528c-.64-.8-1.904-2.496-3.792-5.088-1.888-2.624-2.912-4.032-3.072-4.224v16.176c0 .736-.032 1.296-.096 1.68-.032.352-.176.752-.432 1.2-.48.864-1.728 1.296-3.744 1.296-1.952 0-3.168-.432-3.648-1.296-.256-.448-.416-.864-.48-1.248-.032-.384-.048-.96-.048-1.728V32.04c0-.736.016-1.28.048-1.632.064-.384.224-.816.48-1.296.48-.832 1.728-1.248 3.744-1.248.864 0 1.6.112 2.208.336.64.192 1.056.4 1.248.624l.288.288 10.896 14.304c5.44-7.2 9.072-11.952 10.896-14.256.544-.864 1.824-1.296 3.84-1.296 2.048 0 3.296.432 3.744 1.296Z" fill="#fff"/></svg>