<svg data-name="Layer 1" xmlns="http://www.w3.org/2000/svg" width="704.362" height="635"><path d="M437.632 369h-258a33.037 33.037 0 0 1-33-33V33a33.037 33.037 0 0 1 33-33H419.66l50.973 40.629V336a33.037 33.037 0 0 1-33 33Z" fill="#e6e6e6"/><path d="M179.632 9.5a23.527 23.527 0 0 0-23.5 23.5v303a23.527 23.527 0 0 0 23.5 23.5h258a23.527 23.527 0 0 0 23.5-23.5V45.206L416.336 9.5Z" fill="#fff"/><path d="M387.451 97.604H269.988a5.495 5.495 0 1 1 0-10.99H387.45a5.495 5.495 0 1 1 0 10.99Zm22.669 18.547H269.988a5.495 5.495 0 1 1 0-10.99H410.12a5.495 5.495 0 1 1 0 10.99Zm-22.669 64.571H269.988a5.495 5.495 0 1 1 0-10.99H387.45a5.495 5.495 0 1 1 0 10.99Zm22.669 18.547H269.988a5.495 5.495 0 1 1 0-10.99H410.12a5.495 5.495 0 1 1 0 10.99Zm-22.669 64.571H269.988a5.495 5.495 0 1 1 0-10.991H387.45a5.495 5.495 0 1 1 0 10.99Zm22.669 18.546H269.988a5.495 5.495 0 0 1 0-10.99H410.12a5.495 5.495 0 1 1 0 10.99Z" fill="#ccc"/><circle data-name="Ellipse 44" cx="221.073" cy="101.382" r="19.423" fill="#0891b2"/><path data-name="Path 395" d="M219.148 108.792a2.014 2.014 0 0 1-1.212-.403l-.022-.016-4.564-3.492a2.029 2.029 0 0 1 2.468-3.22l2.957 2.267 6.986-9.115a2.028 2.028 0 0 1 2.843-.375l-.042.06.044-.06a2.03 2.03 0 0 1 .375 2.844l-8.218 10.716a2.029 2.029 0 0 1-1.613.791Z" fill="#fff"/><circle data-name="Ellipse 44" cx="223.073" cy="184.5" r="19.423" fill="#ccc"/><circle data-name="Ellipse 44" cx="221.073" cy="267.618" r="19.423" fill="#ccc"/><path d="M469.64 41.936h-39.929a10.99 10.99 0 0 1-10.99-10.99V1.455a.687.687 0 0 1 1.113-.539l50.233 39.795a.687.687 0 0 1-.427 1.225Z" fill="#e6e6e6"/><path d="M199.348 425.772 46.702 457.947a17.02 17.02 0 0 1-20.14-13.128L.366 320.549a17.02 17.02 0 0 1 13.129-20.14l152.646-32.175a17.02 17.02 0 0 1 20.14 13.128l26.194 124.27a17.02 17.02 0 0 1-13.128 20.14Z" fill="#fff"/><path d="M199.348 425.772 46.702 457.947a17.02 17.02 0 0 1-20.14-13.128L.366 320.549a17.02 17.02 0 0 1 13.129-20.14l152.646-32.175a17.02 17.02 0 0 1 20.14 13.128l26.194 124.27a17.02 17.02 0 0 1-13.128 20.14ZM13.908 302.366a15.017 15.017 0 0 0-11.584 17.771l26.194 124.27A15.017 15.017 0 0 0 46.29 455.99l152.645-32.175a15.017 15.017 0 0 0 11.584-17.771l-26.194-124.27a15.017 15.017 0 0 0-17.77-11.583Z" fill="#3f3d56"/><path data-name="Path 411" d="M156.657 309.209 79.62 325.447a2.73 2.73 0 0 1-3.23-1.863 2.63 2.63 0 0 1 2-3.254l78.42-16.53c3.061 1.726 2.094 4.936-.153 5.41Z" fill="#ccc"/><path data-name="Path 412" d="M159.506 322.722 82.467 338.96a2.73 2.73 0 0 1-3.23-1.863 2.63 2.63 0 0 1 2-3.254l78.42-16.53c3.062 1.726 2.094 4.936-.152 5.41Z" fill="#ccc"/><path data-name="Path 413" d="m67.435 350.165-23.511 4.955a2.962 2.962 0 0 1-3.506-2.285L34.57 325.09a2.962 2.962 0 0 1 2.285-3.506l23.511-4.955a2.963 2.963 0 0 1 3.506 2.285l5.848 27.745a2.962 2.962 0 0 1-2.285 3.506Z" fill="#ccc"/><path data-name="Path 414" d="M165.113 350.437 47.54 375.22a2.73 2.73 0 0 1-3.23-1.863 2.63 2.63 0 0 1 1.999-3.254l118.958-25.074c3.062 1.725 2.094 4.935-.153 5.408Z" fill="#ccc"/><path data-name="Path 415" d="M167.963 363.954 50.388 388.737a2.73 2.73 0 0 1-3.23-1.863 2.63 2.63 0 0 1 2-3.254l118.957-25.074c3.062 1.725 2.094 4.935-.152 5.408Z" fill="#ccc"/><path data-name="Path 416" d="M170.81 377.462 53.235 402.245a2.73 2.73 0 0 1-3.23-1.863 2.63 2.63 0 0 1 2-3.254l118.957-25.074c3.062 1.725 2.094 4.935-.152 5.408Z" fill="#ccc"/><path data-name="Path 417" d="M173.659 390.978 56.084 415.761a2.73 2.73 0 0 1-3.23-1.863 2.63 2.63 0 0 1 2-3.254L173.81 385.57c3.062 1.725 2.094 4.935-.152 5.408Z" fill="#ccc"/><path data-name="Path 418" d="M176.506 404.488 58.932 429.27a2.73 2.73 0 0 1-3.23-1.863 2.63 2.63 0 0 1 1.999-3.254l118.958-25.074c3.062 1.726 2.094 4.935-.153 5.409Z" fill="#ccc"/><path d="M197.26 342.62a10.525 10.525 0 0 0-.682 1.51l-48.134 11.945-8.373-8.662-14.725 10.928 13.333 16.776a8 8 0 0 0 9.289 2.428l52.23-21.342a10.497 10.497 0 1 0-2.937-13.582ZM32.964 448.913a10.743 10.743 0 0 0 6.378-15.188l33.125-92.067-23.004-4.077-25.327 91.781a10.8 10.8 0 0 0 8.828 19.551Z" fill="#a0616a"/><path d="m68.26 358.001-22.713-8.717a4.817 4.817 0 0 1-2.47-6.863l11.916-21.125a13.377 13.377 0 0 1 24.95 9.66l-5.256 23.597A4.817 4.817 0 0 1 68.26 358Z" fill="#0891b2"/><path fill="#a0616a" d="m119.525 621.766 12.26-.001 5.832-47.288-18.094.001.002 47.288z"/><path d="M116.398 617.763h24.144a15.386 15.386 0 0 1 15.387 15.386v.5l-39.53.001Z" fill="#2f2e41"/><path fill="#a0616a" d="m50.525 621.766 12.26-.001 5.832-47.288-18.094.001.002 47.288z"/><path d="M47.398 617.763h24.144a15.386 15.386 0 0 1 15.387 15.386v.5l-39.53.001Zm15.979-15.03H47.863a4.5 4.5 0 0 1-4.495-4.714l7.37-158.332.464-.013 74.919-1.953 14.66 158.423a4.5 4.5 0 0 1-4.12 4.911l-17.427 1.394a4.502 4.502 0 0 1-4.767-3.582L92.177 486.09a1.454 1.454 0 0 0-1.47-1.199h-.005a1.454 1.454 0 0 0-1.467 1.211l-21.442 113a4.51 4.51 0 0 1-4.416 3.631Z" fill="#2f2e41"/><circle cx="91.797" cy="273.914" r="24.561" fill="#a0616a"/><path d="M83.561 458.242c-11.706 0-23.73-3.077-33.698-12.175a4.552 4.552 0 0 1-1.47-3.85c1.068-9.586 6.243-59.08 3.329-92.143a40.02 40.02 0 0 1 12.955-33.305 39.598 39.598 0 0 1 33.962-9.834c.306.055.612.112.918.171 19.664 3.806 33.326 22.004 31.78 42.331-2.256 29.66-4.278 69.78-1.103 92.468a4.493 4.493 0 0 1-2.414 4.637c-7.225 3.65-25.326 11.7-44.259 11.7Z" fill="#0891b2"/><path d="M115.61 359.768a4.812 4.812 0 0 1-2.109-3.411l-2.992-23.99a13.377 13.377 0 0 1 25.754-7.248l9.856 22.161a4.817 4.817 0 0 1-3.11 6.598l-23.437 6.522a4.811 4.811 0 0 1-3.961-.632Z" fill="#0891b2"/><path d="M83.223 298.128a17.598 17.598 0 0 1-6.797-1.23c-.952-.366-1.94-.667-2.889-1.034-8.387-3.24-13.911-12.172-14.109-21.16s4.457-17.714 11.37-23.463 15.864-8.702 24.829-9.384c9.657-.735 20.53 1.713 25.926 9.755 1.437 2.141 2.441 4.738 1.59 7.323a4.686 4.686 0 0 1-1.32 2.028c-2.41 2.144-4.812.532-7.27.39-3.376-.196-6.408 2.537-7.498 5.738s-.61 6.727.27 9.993a24.962 24.962 0 0 1 1.258 6.076 6.108 6.108 0 0 1-2.531 5.378c-2.11 1.276-4.88.537-6.992-.736s-3.935-3.044-6.216-3.98-5.344-.73-6.671 1.348a7.379 7.379 0 0 0-.844 2.435c-1.19 5.421-.916 5.102-2.106 10.523Z" fill="#2f2e41"/><path d="M191.668 635h-190a1 1 0 0 1 0-2h190a1 1 0 1 1 0 2Z" fill="#ccc"/><path d="m678.012 428.63-136.057 76.317a17.02 17.02 0 0 1-23.144-6.51l-62.13-110.765a17.02 17.02 0 0 1 6.51-23.144l136.058-76.317a17.02 17.02 0 0 1 23.143 6.51l62.13 110.765a17.02 17.02 0 0 1-6.51 23.143Z" fill="#fff"/><path d="m678.012 428.63-136.057 76.317a17.02 17.02 0 0 1-23.144-6.51l-62.13-110.765a17.02 17.02 0 0 1 6.51-23.144l136.058-76.317a17.02 17.02 0 0 1 23.143 6.51l62.13 110.765a17.02 17.02 0 0 1-6.51 23.143ZM464.17 366.272a15.017 15.017 0 0 0-5.745 20.42l62.13 110.765a15.017 15.017 0 0 0 20.421 5.744l136.058-76.317a15.017 15.017 0 0 0 5.744-20.42L620.648 295.7a15.017 15.017 0 0 0-20.42-5.745Z" fill="#3f3d56"/><path data-name="Path 411" d="m602.442 330.148-68.667 38.517a2.73 2.73 0 0 1-3.638-.813 2.63 2.63 0 0 1 .935-3.703l69.898-39.207c3.437.731 3.473 4.084 1.47 5.207Z" fill="#ccc"/><path data-name="Path 412" d="m609.198 342.193-68.667 38.516a2.73 2.73 0 0 1-3.638-.813 2.63 2.63 0 0 1 .935-3.703l69.898-39.207c3.437.732 3.473 4.084 1.47 5.207Z" fill="#ccc"/><path data-name="Path 413" d="m529.534 395.893-20.957 11.755a2.962 2.962 0 0 1-4.028-1.133l-13.872-24.73a2.962 2.962 0 0 1 1.134-4.029l20.956-11.754a2.963 2.963 0 0 1 4.028 1.133l13.872 24.73a2.962 2.962 0 0 1-1.133 4.028Z" fill="#ccc"/><path data-name="Path 414" d="m622.83 366.966-104.797 58.783a2.73 2.73 0 0 1-3.638-.813 2.63 2.63 0 0 1 .935-3.703l106.03-59.474c3.438.732 3.473 4.084 1.47 5.207Z" fill="#ccc"/><path data-name="Path 415" d="M629.589 379.014 524.79 437.797a2.73 2.73 0 0 1-3.638-.813 2.63 2.63 0 0 1 .935-3.702l106.03-59.475c3.438.732 3.473 4.084 1.47 5.207Z" fill="#ccc"/><path data-name="Path 416" d="m636.343 391.054-104.798 58.783a2.73 2.73 0 0 1-3.639-.813 2.63 2.63 0 0 1 .935-3.702l106.03-59.475c3.438.732 3.474 4.084 1.472 5.207Z" fill="#ccc"/><path data-name="Path 417" d="m643.1 403.102-104.798 58.783a2.73 2.73 0 0 1-3.638-.813 2.63 2.63 0 0 1 .935-3.703l106.03-59.475c3.438.732 3.473 4.084 1.471 5.207Z" fill="#ccc"/><path data-name="Path 418" d="m649.854 415.143-104.797 58.783a2.73 2.73 0 0 1-3.639-.813 2.63 2.63 0 0 1 .935-3.703l106.03-59.474c3.438.731 3.473 4.084 1.471 5.207Z" fill="#ccc"/><path d="M631.571 460.266a9.454 9.454 0 0 0-6.28-13.065l-2.85-33.475-13.706 10.813 4.807 30.13a9.505 9.505 0 0 0 18.03 5.597Z" fill="#ffb8b8"/><path d="m622.7 443.695-11.383 1.357a4.231 4.231 0 0 1-4.728-4.018l-1.66-38.402-21.577-58.946a12.148 12.148 0 0 1 .641-11.567 15.878 15.878 0 0 1 1.808-2.334 12.11 12.11 0 0 1 10.562-3.75 12.626 12.626 0 0 1 9.484 6.59l14.071 29.486a83.765 83.765 0 0 1 8.095 39.573l-1.587 37.988a4.228 4.228 0 0 1-3.67 4.015Z" fill="#0891b2"/><path fill="#ffb8b8" d="m663.126 609.664-10.554 4.632-22.89-38.503 15.576-6.837 17.868 40.708z"/><path d="m670.309 618.713-34.03 14.937-.19-.43a14.465 14.465 0 0 1 7.431-19.06h.001l20.785-9.123Z" fill="#2f2e41"/><path fill="#ffb8b8" d="M521.437 622.477h-11.526l-5.483-44.457 17.011.001-.002 44.456z"/><path d="m524.376 633.65-37.164-.001v-.47a14.465 14.465 0 0 1 14.465-14.465h22.7Zm109.276-26.37-64.206-143.284a1.41 1.41 0 0 0-2.656.188l-39.12 138.394a4.206 4.206 0 0 1-4.504 3.1l-21.366-2.136a4.255 4.255 0 0 1-3.798-4.551c6.796-84.524 17.509-164.298 49.602-216.52l.17-.278 48.544 9.519 64.808 206.373a4.249 4.249 0 0 1-2.751 5.265l-19.543 6.281a4.215 4.215 0 0 1-5.18-2.352Z" fill="#2f2e41"/><circle cx="571.237" cy="285.983" r="23.091" fill="#ffb8b8"/><path d="m544.62 386.468-.295-.06-.069-.292c-3.111-13.135-3.185-27.47-.22-42.606a33.468 33.468 0 0 1 33.507-27.074 33.523 33.523 0 0 1 32.819 32.23c.99 26.032-9.649 48.6-9.756 48.826l-.159.33Z" fill="#0891b2"/><path d="M482.72 430.397a9.454 9.454 0 0 0 7.582-12.355l26.596-20.526-16.513-5.666-22.724 20.36a9.505 9.505 0 0 0 5.06 18.187Z" fill="#ffb8b8"/><path d="M497.247 414.917a4.215 4.215 0 0 1-5.401-.952l-7.307-8.834a4.23 4.23 0 0 1 .818-6.15l31.383-22.194 37.865-50.065a12.147 12.147 0 0 1 10.072-5.726 15.846 15.846 0 0 1 2.94.257 12.106 12.106 0 0 1 8.873 6.848 12.625 12.625 0 0 1-.403 11.54l-28.038 45.406-.062.1Z" fill="#0891b2"/><path d="M575.367 284.55c-1.702-2.799-5.458-3.59-8.719-3.27s-6.431 1.465-9.707 1.44c-9.097-.071-16.119-11.158-12.294-19.412 3.136-6.77 10.97-9.742 18.057-12.075 14.858-4.891 31.925-9.59 45.408-1.66a28.214 28.214 0 0 1 13.58 25.14c-.304 6.242-2.694 12.653-.672 18.566 2.332 6.822 9.727 10.482 16.715 12.252 12.25 3.104 25.167 2.604 37.494 5.387s24.96 10.175 28.282 22.368c2.183 8.009-.094 16.63-3.866 24.025a62.223 62.223 0 0 1-86.805 25.461c-14.903-8.702-25.662-23.409-32.076-39.43a132.03 132.03 0 0 1-7.632-29c-1.437-9.29-.218-18.679 2.384-27.713a2.547 2.547 0 0 0-.15-2.078Z" fill="#2f2e41"/><path d="M658.668 635h-190a1 1 0 0 1 0-2h190a1 1 0 1 1 0 2Z" fill="#ccc"/></svg>