<svg xmlns="http://www.w3.org/2000/svg" width="600" height="600" viewBox="0 0 200 200" style="overflow:hidden!important"><defs><radialGradient id="s" cx="100" cy="114" r="41" gradientUnits="userSpaceOnUse" class="svga-on-canvas-facehighlight-gradient-single-0"><stop stop-opacity=".5" stop-color="#ffe4d6" offset="0"/><stop stop-opacity="0" stop-color="#f0c7b1" offset=".9"/></radialGradient><radialGradient id="t" cx="100" cy="54" r="37" gradientUnits="userSpaceOnUse" class="svga-on-canvas-facehighlight-gradient-single-1"><stop stop-opacity=".5" stop-color="#ffe4d6" offset="0"/><stop stop-opacity="0" stop-color="#f0c7b1" offset=".9"/></radialGradient><radialGradient id="c" cx="129.041" cy="83.945" r="15.117" gradientTransform="scale(-1 1) rotate(5.981 22.864 -1851.752)" gradientUnits="userSpaceOnUse" class="svga-on-canvas-eyesback-gradient-left-0"><stop stop-color="#fff" offset="0"/><stop stop-color="#fcfdfd" offset=".315"/><stop stop-color="#f4f7f8" offset=".504"/><stop stop-color="#e5ecef" offset=".66"/><stop stop-color="#d8e2e7" offset=".76"/></radialGradient><radialGradient id="k" cx="128.643" cy="83.986" r="15.116" gradientTransform="rotate(5.981 122.87 62.427)" gradientUnits="userSpaceOnUse" class="svga-on-canvas-eyesback-gradient-right-0"><stop stop-color="#fff" offset="0"/><stop stop-color="#fcfdfd" offset=".316"/><stop stop-color="#f4f7f8" offset=".505"/><stop stop-color="#e5ecef" offset=".661"/><stop stop-color="#d8e2e7" offset=".76"/></radialGradient><radialGradient id="d" cx="-568.659" cy="-521.042" r="59.751" gradientTransform="matrix(.096 -.0248 .0245 .0961 141.281 119.99)" gradientUnits="userSpaceOnUse" class="svga-on-canvas-eyesiris-gradient-left-1"><stop stop-color="#fff" offset="0"/><stop stop-opacity="0" stop-color="#fff" offset="1"/></radialGradient><radialGradient id="e" cx="-582.838" cy="-519.099" r="59.745" gradientTransform="matrix(.0991 .00089 -.0011 .0991 131.113 135.986)" gradientUnits="userSpaceOnUse" class="svga-on-canvas-eyesiris-gradient-left-2"><stop stop-color="#fff" offset="0"/><stop stop-opacity="0" stop-color="#fff" offset="1"/></radialGradient><radialGradient id="l" cx="-568.654" cy="-521.042" r="59.752" gradientTransform="matrix(.096 -.0248 .0245 .0961 193.28 119.99)" gradientUnits="userSpaceOnUse" class="svga-on-canvas-eyesiris-gradient-right-1"><stop stop-color="#fff" offset="0"/><stop stop-opacity="0" stop-color="#fff" offset="1"/></radialGradient><radialGradient id="m" cx="-582.833" cy="-519.102" r="59.747" gradientTransform="matrix(.0991 .00089 -.0011 .0991 183.113 135.986)" gradientUnits="userSpaceOnUse" class="svga-on-canvas-eyesiris-gradient-right-2"><stop stop-color="#fff" offset="0"/><stop stop-opacity="0" stop-color="#fff" offset="1"/></radialGradient><radialGradient id="i" cx="121.986" cy="82.496" fx="133.239" fy="82.527" r="16.003" gradientTransform="matrix(.9998 .0208 .0166 -.7998 -45.32 145.94)" gradientUnits="userSpaceOnUse" class="svga-on-canvas-eyesfront-gradient-left-3"><stop stop-color="#e1ac8f" offset="0"/><stop stop-opacity=".3" stop-color="#e1ac8f" offset=".7"/><stop stop-opacity="0" stop-color="#f0c7b1" offset="1"/></radialGradient><radialGradient id="j" cx="68.931" cy="105.995" r="29.524" gradientTransform="translate(-1.68 1.313) scale(1.0336)" gradientUnits="userSpaceOnUse" class="svga-on-canvas-eyesfront-gradient-left-4"><stop stop-opacity="0" offset=".95"/><stop stop-opacity=".2" offset="1"/></radialGradient><radialGradient id="q" cx="121.587" cy="82.496" fx="132.839" fy="82.527" r="16.003" gradientTransform="matrix(-.9998 .0208 -.0166 -.7998 244.52 145.948)" gradientUnits="userSpaceOnUse" class="svga-on-canvas-eyesfront-gradient-right-3"><stop stop-color="#e1ac8f" offset="0"/><stop stop-opacity=".3" stop-color="#e1ac8f" offset=".7"/><stop stop-opacity="0" stop-color="#f0c7b1" offset="1"/></radialGradient><radialGradient id="r" cx="69.316" cy="105.995" r="29.524" gradientTransform="matrix(-1.0336 0 0 1.0336 201.68 1.313)" gradientUnits="userSpaceOnUse" class="svga-on-canvas-eyesfront-gradient-right-4"><stop stop-opacity="0" offset=".95"/><stop stop-opacity=".2" offset="1"/></radialGradient><linearGradient id="f" x1="122.67" y1="88.268" x2="123.606" y2="87.152" gradientTransform="translate(-52)" gradientUnits="userSpaceOnUse" class="svga-on-canvas-eyesiris-gradient-left-5"><stop stop-color="#fff" offset="0"/><stop stop-opacity="0" stop-color="#fff" offset="1"/></linearGradient><linearGradient id="g" x1="127.212" y1="82.296" x2="126.463" y2="83.189" gradientTransform="translate(-52)" gradientUnits="userSpaceOnUse" class="svga-on-canvas-eyesiris-gradient-left-6"><stop stop-color="#fff" offset="0"/><stop stop-opacity="0" stop-color="#fff" offset="1"/></linearGradient><linearGradient id="h" x1="129.636" y1="79.822" x2="127.91" y2="81.879" gradientTransform="translate(-52)" gradientUnits="userSpaceOnUse" class="svga-on-canvas-eyesiris-gradient-left-7"><stop stop-color="#fff" offset="0"/><stop stop-opacity="0" stop-color="#fff" offset="1"/></linearGradient><linearGradient id="n" x1="122.67" y1="88.268" x2="123.606" y2="87.152" gradientUnits="userSpaceOnUse" class="svga-on-canvas-eyesiris-gradient-right-5"><stop stop-color="#fff" offset="0"/><stop stop-opacity="0" stop-color="#fff" offset="1"/></linearGradient><linearGradient id="o" x1="127.212" y1="82.296" x2="126.463" y2="83.189" gradientUnits="userSpaceOnUse" class="svga-on-canvas-eyesiris-gradient-right-6"><stop stop-color="#fff" offset="0"/><stop stop-opacity="0" stop-color="#fff" offset="1"/></linearGradient><linearGradient id="p" x1="129.636" y1="79.822" x2="127.91" y2="81.879" gradientUnits="userSpaceOnUse" class="svga-on-canvas-eyesiris-gradient-right-7"><stop stop-color="#fff" offset="0"/><stop stop-opacity="0" stop-color="#fff" offset="1"/></linearGradient><linearGradient id="b" x1="100" y1="142" x2="100" y2="139" gradientUnits="userSpaceOnUse" class="svga-on-canvas-mouth-gradient-single-0"><stop stop-color="#e8b9a0" offset=".1"/><stop stop-color="#e1ac8f" offset="1"/></linearGradient><linearGradient id="a" x1="100" y1="171" x2="100" y2="131" gradientUnits="userSpaceOnUse" class="svga-on-canvas-chinshadow-gradient-single-0"><stop stop-opacity=".8" stop-color="#e1ac8f" offset="0"/><stop stop-color="#c27b55" offset=".7"/></linearGradient></defs><path d="M225 225H-25V-25h250v250z" fill="#ecf0f1"/><path d="M47.329 107.644c-3.848-9.102-3.281-12.863-2.256-19.978-1.767 1.913-2.824 4.479-5.706 6.853.223-1.705 3.628-11.593 3.899-12.319-3.268 2.978-5.074 3.613-6.638 4.226 1.056-1.575 1.756-3.406 3.315-6.743h9.8c.196 3.639.906 8.134 1.965 12.082-.56.372-2.033 2.703-4.38 15.879zm102.724-26.577c-.04 3.263-1.141 9.379-2.472 13.489.684.46 1.481.997 1.308.857 5.058 4.062 5.872 4.763 6.387 11.378 3.675-7.93.558-18.11.373-25.723h-5.596zm5.603 0h3.775c-.495 1.674-1.646 4.07-2.909 5.638-.474-1.84-.735-4.46-.866-5.638z" fill="#1b141c"/><path d="M44.058 81.098c-2.89 7.59-3.06 9.486-4.59 13.209 2.423-1.996 4.24-5.934 5.866-6.987-.28 2.567-1.615 7.752-.128 13.43a45.572 45.572 0 0 0 2.134 6.264c.221-3.026.672-11.84 3.468-14.518-1.921 5.058-3.018 11.67-3.018 16.83-5.448-9.494-4.198-14.705-2.915-21.326-1.99 2.27-2.55 5.108-6.367 7.42 1.3-2.745 1.718-6.01 4.412-12.699-2.236 2.236-3.74 3.128-6.724 4.012 1.12-1.854 2.106-4.204 2.973-6.115h.92c-.85 1.831-1.727 3.677-2.796 5.274 2.235-.876 4.376-2.508 6.765-4.794zM147.58 94.556c.184.126 1.425.979 1.982 1.468 2.326 2.042 5.325 3.905 5.115 12.988 3.862-6.67 3.361-16.544 2.159-21.921 1.714-1.844 2.872-4.116 3.462-6.03l-1.022-.01c-.495 1.674-1.407 3.69-2.67 5.258-.476-1.84-.735-3.892-.866-5.071l-.092-.17c.185 7.612 2.648 16.65-.206 25.088-.516-6.615-2.049-7.82-7.862-11.6z"/><path d="M181.084 187.47c-1.867-4.035-6.966-10.013-12.631-11.665-7.003-2.042-22.812-4.511-28.673-5.884-4.7-1.102-14.163-9.6-17.48-12.453-.595-.51-1.082-1.563-1.094-2.346-.118-9.234 3.566-33.765 3.566-33.765H75.187s3.684 24.53 3.564 33.765c-.009.783-.499 1.836-1.092 2.346-3.317 2.853-12.78 11.351-17.48 12.453-5.862 1.373-21.67 3.926-28.672 5.969-5.667 1.65-10.765 7.544-12.631 11.578-3.152 6.807-3.897 19.125-3.897 29.75h170c0-10.624-.745-22.942-3.895-29.749z" fill="#f0c7b1"/><path d="M150.262 174.107c20.69 3.01 29.398 7.402 32.125 43.113h2.592c0-10.625-.745-22.943-3.895-29.75-1.867-4.034-6.966-10.012-12.631-11.664-7.003-2.042-22.812-4.512-28.673-5.884-4.7-1.102-15.506-10.259-18.397-13.898 2.856 3.999 10.872 13.264 17.896 15.691 3.36 1.161 6.158 1.69 10.983 2.392zm-89.582-2.392c7.024-2.426 15.04-11.692 17.896-15.69-2.89 3.637-13.697 12.795-18.396 13.897-5.862 1.372-21.67 3.926-28.673 5.968-5.666 1.651-10.765 7.545-12.631 11.58-3.15 6.806-3.896 19.124-3.896 29.749h2.593c2.71-35.482 11.453-40.105 32.125-43.113 4.823-.701 7.622-1.23 10.982-2.39z" fill="#ffe4d6"/><path d="M96.278 185.635s-4.313-1.368-6.02-2.022c-8.882-3.408-37.736-5.616-37.736-5.616s30.391 1.206 37.097 2.362c-.389-4.052-2.564-17.004-2.564-17.004s4.377 14.293 5.448 17.899c.573 1.928 3.775 4.38 3.775 4.38zm9.18-1.14c-.076.061-.163.142-.257.227.096-.072.183-.148.256-.228zm-9.18 1.14s2.46 2.543 3.695 2.575c1.624.044 4.104-2.464 5.229-3.488-1.076.813-3.535 1.182-4.514 1.22-1.13.044-4.41-.307-4.41-.307zm17.866-6.391c-1.314.21-3.728.67-3.728.67l1.943-12.656c-.549 2.61-3.802 13.78-6.902 17.236 1.624-1.374 5.235-2.032 7.076-2.298 8.7-1.262 8.697-1.26 34.903-4.2 0 0-24.71-.131-33.292 1.248z" fill="#e1ac8f"/><path d="M181.084 187.47c-1.867-4.035-6.966-10.013-12.631-11.665-7.003-2.042-22.812-4.511-28.673-5.884-4.7-1.102-14.163-9.6-17.48-12.453-.595-.51-1.082-1.563-1.094-2.346-.118-9.234 3.566-33.765 3.566-33.765H75.187s3.684 24.53 3.564 33.765c-.009.783-.499 1.836-1.092 2.346-3.317 2.853-12.78 11.351-17.48 12.453-5.862 1.373-21.67 3.926-28.672 5.969-5.667 1.65-10.765 7.544-12.631 11.578-3.152 6.807-3.897 19.125-3.897 29.75h170c0-10.624-.745-22.942-3.895-29.749z" fill="none" stroke="#c27b55" stroke-width="1.275"/><path d="M100.021 171.866c8.183 0 16.871-4.943 24.199-10.675-.001-6.702 1.451-19.105 2.652-28.205-15.382-2.247-38.406-2.279-53.766-.152 1.184 8.96 2.625 21.206 2.671 28.02 7.342 5.913 16.045 11.012 24.244 11.012z" fill="url(#a)" transform="matrix(.85 0 0 .85 14.98 17.658)"/><path d="M110.014 218.163c-16.264 0-35.236-.063-57.998-.195l-20.127-.109c-12.153-.066-12.87-.08-14.354-.08l-4.164.006c-3.885-35.594 12.249-44.94 37.198-48.202 6.62-.932 13.131-2.632 18.24-5.926 13.878 18.907 55.09 14.928 62.137-.534 1.182.45 2.159 1.032 3.38 1.473 3.967 2.918 9.412 4.961 14.985 5.27 22.106 1.224 37.756 11.046 37.448 46.444.003.14.004.998-.01 1.266-10.637 0-14.626.103-22.98.223-11.331.161-25.434.363-53.744.363h-.01z" fill="#1e78a2"/><path d="M185.876 217.102c-.349-6.277-3.454-23.85-8.806-31.91-10.61-15.984-35.921-10.375-41.762-16.74-4.238 8.636-21.229 14.107-26.855 14.91 16.304-5.406 23.151-9.315 25.857-18.59 5.444 7.08 34.913 1.676 46.51 20.682 3.395 5.565 6.624 23.278 5.056 31.648zm-123.457-48.46c1.153-.268 1.729-1.062 2.873-1.372l-1.212-1.608c-7.691 5.995-36.472 2.249-46.34 20.43-3.11 5.73-5.209 19.37-3.564 30.974.457-7.126.68-22.367 6.03-30.428 9.626-14.501 27.179-10.67 40.477-16.809 5.935 7.31 15.205 10.904 24.636 12.39-11.833-3.086-18.617-8.297-22.9-13.577z" fill="#3389b1"/><path d="M129.993 164.915c-4.702 9.787-40.248 21.185-60.29.747-1.247.529-4.975 1.796-4.975 1.796 14.6 19.878 57.384 20.003 68.773-.097-.05-.02-2.35-1.858-3.508-2.446z" fill="#0c6893"/><path d="M130.902 163.01c-8 15.998-49.637 18.262-62.06.537-4.536 1.341-8.899 4.2-13.29 4.914-26.283 3.915-45.712 5.882-42.273 49.416 8.45 0-5.619-.055 38.736.183 105.051.603 101.627-.392 134.815-.392.024-.12.012-1.234.018-1.357 1.781-47.97-26.225-45.138-45.152-48.445-2.673-.61-5.157-2.358-7.34-3.354-1.206-.551-2.231-1.047-3.454-1.503zm-62.36 1.073c11.027 19.883 54.585 15.894 62.995.086 1.02.428 1.281.598 2.463 1.017-8.71 18.266-51.8 24.087-69.425.989.124-.035 2.723-1.626 3.966-2.092zm-54.28 53.136c-2.059-22.466 1.527-40.836 27.862-45.343 8.735-1.612 14.073-1.668 21.576-4.925 14.249 23.294 61.284 19.684 71.059-1.11 1.404 1.198 3.593 2.576 6.294 3.218 15.383 3.654 46.612-.76 44.963 48.16-45.948-.598-84.035-1.993-171.755 0z" fill="#004f74"/><path d="M53.8 89.35c-1.263-2.092-5.378-7.819-8.527-7.016-2.56.657-2.527 4.226-2.725 6.337-.289 3.097-.394 8.493.446 10.683.809 2.102 3.366 6.164 4.954 7.714 1.954 1.9 5.075 7.954 5.459 8.582.604.993 1.816 2.414 3.676 2.302 2.61-.157 4.866-2.624 5.07-3.812 1.106-6.452-5.068-19.345-8.353-24.79z" fill="#f0c7b1" stroke="#c27b55" stroke-width="1.275"/><path d="M52.55 102.098c-.122-.479.005-1.286.13-2.065.113-.71.22-1.38.155-1.855-.246-1.776-1.628-5.15-2.53-6.98-1.04-2.104-2.719-4.756-4.827-5.439-.87-.283-1.444.055-1.776.398-.244.251-.3.548-.22.584.081.035.261-.211.525-.441.216-.19-.432-.034 0 0-.174.884-.735 5.356-.349 8.621.305 2.569.893 4.487 1.074 4.775.026.302.07.599.136.886.852 3.749 6.39 8.65 7.679 10.047.238.258.488.41.549.348s-.086-.317-.322-.577c-1.274-1.387-6.776-6.273-7.598-9.89-.873-3.836 3.325-9.525 3.994-10.729.34.565.63 1.108.853 1.56.176.354.369.77.57 1.22-.394.627-4.35 5.208-3.344 8.875.372 1.352 3.248 3.095 4.361 3.572.612.264.842.656 1.108 1.11.31.53.028 1.895 1.046 2.328.207.089.394.124.56.124.287 0 .505-.11.666-.241.017.23.016.526.007.8-.01.355.04.518.126.524.088.008.179-.148.19-.499.014-.433.012-.97-.066-1.227-.228-.756-.925-1.61-1.663-2.513-.726-.889-.846-2.575-1.035-3.316zm-7.847-3.323c-1.996-5.885 1.09-11.245 1.538-12.052.86.339 2.178 1.864 2.738 2.75-.408.708-4.193 5.344-4.276 9.302zm9.182 9.377c-.92-.392-.6-1.686-.897-2.196-.27-.46-.55-.937-1.257-1.241a3.306 3.306 0 0 1-.496-.282c-2.28-5.164.25-7.42.883-7.882.195.63.34 1.21.405 1.674.058.425-.05 1.103-.154 1.758-.13.812-.263 1.652-.125 2.196.208.81.35 2.525 1.097 3.441.664.813 1.346 1.65 1.579 2.334-.1.136-.416.463-1.035.198z" fill="#c27b55"/><path d="M145.935 89.35c1.263-2.092 5.38-7.819 8.527-7.016 2.56.657 2.527 4.226 2.726 6.337.289 3.097.393 8.493-.447 10.683-.808 2.102-3.366 6.164-4.953 7.714-1.955 1.9-5.076 7.954-5.46 8.582-.603.993-1.816 2.414-3.676 2.302-2.61-.157-4.865-2.624-5.07-3.812-1.105-6.452 5.07-19.345 8.353-24.79z" fill="#f0c7b1" stroke="#c27b55" stroke-width="1.275"/><path d="M146.153 105.414c-.739.904-1.435 1.758-1.664 2.514-.078.258-.08.795-.066 1.227.012.351.103.507.191.5.087-.008.136-.17.126-.525-.008-.274-.01-.57.007-.8.16.13.378.241.666.241.165 0 .353-.035.56-.124 1.016-.434.736-1.798 1.045-2.328.267-.454.497-.847 1.11-1.11 1.112-.477 3.989-2.22 4.36-3.573 1.007-3.667-2.95-8.248-3.343-8.874.199-.45.393-.866.568-1.22.224-.452.513-.996.855-1.56.669 1.204 4.866 6.892 3.994 10.73-.824 3.615-6.325 8.502-7.598 9.89-.237.259-.385.513-.324.576.063.063.312-.09.55-.348 1.288-1.397 6.825-6.299 7.677-10.047a6.56 6.56 0 0 0 .138-.887c.18-.286.768-2.204 1.073-4.774.386-3.265-.175-7.738-.349-8.622.432-.034-.216-.188 0 0 .264.23.445.476.524.442.08-.036.025-.332-.219-.584-.332-.343-.906-.681-1.776-.398-2.108.683-3.789 3.334-4.828 5.439-.902 1.83-2.283 5.204-2.53 6.98-.064.474.043 1.145.156 1.855.124.778.252 1.586.13 2.065-.188.74-.307 2.426-1.033 3.315zm4.604-15.941c.56-.886 1.877-2.41 2.737-2.75.448.807 3.535 6.167 1.54 12.052-.084-3.958-3.869-8.594-4.277-9.302zm-5.94 18.48c.232-.684.914-1.522 1.578-2.335.747-.916.89-2.63 1.098-3.44.137-.544.005-1.385-.125-2.197-.104-.654-.212-1.333-.154-1.758.064-.465.209-1.043.403-1.674.635.461 3.163 2.719.884 7.882a3.19 3.19 0 0 1-.497.282c-.707.304-.986.78-1.257 1.241-.297.51.025 1.805-.897 2.197-.618.266-.934-.06-1.033-.199z" fill="#c27b55"/><path d="M149.946 83.963h-.004c-.008.039-10.367 34.23-13.497 44.555a14.59 14.59 0 0 1-3.023 5.428c-5.418 6.115-20.202 21.299-33.425 21.299-13.472 0-28.552-16.189-33.752-22.282a13.852 13.852 0 0 1-2.696-4.9c-3.066-9.819-13.707-43.901-13.716-43.94h-.001a53.06 53.06 0 0 1-1.702-13.29c-.044-28.92 23.081-52.393 51.656-52.438 28.578-.045 51.776 23.354 51.82 52.274a53.03 53.03 0 0 1-1.66 13.294z" fill="#f0c7b1"/><path d="M127.322 26.379c12.164 9.465 20.12 25.038 20.144 42.677a57.34 57.34 0 0 1-1.526 13.294h-.004c-.007.04-9.54 34.23-12.417 44.555-.559 2.004-1.51 3.868-2.78 5.427-4.985 6.116-18.586 21.3-30.751 21.3-12.395 0-26.269-16.19-31.052-22.282a14.252 14.252 0 0 1-2.48-4.9c-2.82-9.819-12.61-43.901-12.619-43.94a57.46 57.46 0 0 1-1.567-13.29c-.024-17.702 7.946-33.353 20.157-42.85C57.812 35.643 48.1 52.09 48.13 70.834a53.054 53.054 0 0 0 1.702 13.289c.01.039 10.651 34.121 13.717 43.94a13.873 13.873 0 0 0 2.696 4.9c5.199 6.093 20.28 22.282 33.752 22.282 13.224 0 28.007-15.183 33.425-21.299a14.584 14.584 0 0 0 3.023-5.428c3.13-10.326 13.489-44.516 13.497-44.555h.004a53.036 53.036 0 0 0 1.66-13.295c-.028-18.68-9.724-35.045-24.284-44.29z" fill="#e8b9a0"/><path d="M149.946 83.963h-.004c-.008.039-10.367 34.23-13.497 44.555a14.59 14.59 0 0 1-3.023 5.428c-5.418 6.115-20.202 21.299-33.425 21.299-13.472 0-28.552-16.189-33.752-22.282a13.852 13.852 0 0 1-2.696-4.9c-3.066-9.819-13.707-43.901-13.716-43.94h-.001a53.06 53.06 0 0 1-1.702-13.29c-.044-28.92 23.081-52.393 51.656-52.438 28.578-.045 51.776 23.354 51.82 52.274a53.03 53.03 0 0 1-1.66 13.294z" fill="none" stroke="#c27b55" stroke-width="1.275"/><path d="m96.227 139.237 8.297-.207c-.961 4.47-7.64 3.828-8.297.207z" fill="url(#b)" transform="matrix(.85 0 0 .85 14.98 17.658)"/><path d="M96.87 136.25c-.315-.043-.267-.492.069-.46.036.004 3.662.463 6.696-.184.328-.063.425.387.11.454-2.377.509-5.453.39-6.874.19zm3.18-3.035c-1.278 0-2.516-.443-3.76-.66-1.395-.243-2.783-.034-4.178.09-1.425.126-4.533-.012-5.41-.567a.686.686 0 0 1 .153-1.232c.522-.187 1.336.201 1.863.295 2.44.438 3.726-.029 5.866-.1 3.274-.099 3.621 1.276 7.705.45 4.39-.887 6.367-.215 9.517-1.164.432-.13.945-.476 1.398-.243a.686.686 0 0 1-.041 1.244c-2.895 1.277-6.098.761-9.312 1.297-1.26.21-2.515.59-3.801.59z" fill="#c27b55"/><path d="M61.752 82.523c-.506-2.285 5.191-3.973 12.711-3.051 7.518.923 12.738 5.524 12.052 7.844-.38 1.286-10.639 3.245-14.253 2.847-3.664-.405-9.288-2.123-10.51-7.64z" fill="url(#c)" transform="matrix(.85 0 0 .85 14.98 17.658)"/><path d="M83.192 89.27a5.1 5.1 0 0 1-10.2 0 5.1 5.1 0 0 1 10.2 0z" fill="#4e60a3"/><path d="m73.328 78.066-.071.009.085.406c-.006-.137-.009-.277-.014-.415zm.013.414c.07 1.972.185 3.729.517 4.364.175-.696-.123-2.43-.517-4.364zm.518 4.365c-.043.167-.108.281-.208.319-.1.038-.226-.006-.368-.103.041.167.037.297-.036.378-.072.081-.201.101-.373.078.113.13.171.249.146.353-.027.104-.134.182-.293.242.159.063.266.141.291.245.025.104-.033.223-.145.352.17-.021.301.001.371.082.071.081.075.212.035.379.141-.097.265-.139.365-.1.101.038.166.152.206.32.081-.152.171-.249.28-.26.104-.014.216.059.329.188.001-.172.037-.299.127-.36.088-.061.219-.049.379.013-.078-.152-.105-.281-.055-.377.05-.095.173-.146.344-.166-.141-.099-.227-.2-.225-.308 0-.108.084-.209.227-.306-.17-.021-.291-.072-.342-.167-.049-.095-.022-.225.058-.377-.162.06-.292.072-.38.011-.089-.061-.125-.188-.125-.36-.112.128-.224.199-.33.185-.108-.014-.199-.108-.278-.261zm.607.075c.479-.535 1.021-2.209 1.57-4.104-.854 1.777-1.569 3.386-1.57 4.104zm1.569-4.104c.06-.122.121-.246.178-.37-.021-.007-.042-.017-.063-.026-.038.133-.076.266-.115.396zm-1.063 4.454c.672-.252 1.931-1.483 3.297-2.905-1.581 1.176-2.963 2.269-3.297 2.905zm3.297-2.905.305-.225c-.014-.018-.03-.033-.042-.049-.087.09-.174.183-.263.274zm-3.015 3.449c.713.088 2.4-.417 4.272-1.041-1.948.308-3.678.633-4.272 1.041zm4.272-1.04.337-.052-.014-.057-.323.109zm-4.273 1.653c.59.412 2.318.747 4.262 1.063-1.865-.633-3.548-1.148-4.262-1.063zm4.263 1.063c.095.033.191.067.285.098a.454.454 0 0 0 .012-.05 18.227 18.227 0 0 1-.297-.048zm-4.551-.52c.333.637 1.708 1.738 3.282 2.924-1.359-1.43-2.609-2.668-3.282-2.924zm3.283 2.922.179.189.03-.032c-.07-.052-.142-.105-.209-.157zm-3.788-2.575c-.003.719.703 2.331 1.547 4.113-.539-1.897-1.07-3.575-1.547-4.113zm1.547 4.114c.021.075.043.152.063.229l.039-.014a8.622 8.622 0 0 0-.102-.215zm-2.156-4.042c-.336.637-.461 2.39-.542 4.361.404-1.93.713-3.663.542-4.361zm-.542 4.361c-.017.075-.031.151-.047.228.014.003.025.003.039.005l.008-.233zm-.029-4.581c-.596.407-1.521 1.904-2.508 3.61 1.254-1.52 2.334-2.912 2.508-3.61zm-2.508 3.61-.162.193.038.024.124-.217zm2.103-4.069c-.716.083-2.231.978-3.898 2.029 1.818-.762 3.418-1.491 3.898-2.029zm-3.899 2.031-.263.11c.006.013.015.027.023.04.081-.049.161-.1.24-.15zm3.752-2.628c-.671-.257-2.429-.168-4.395-.011 1.964.168 3.722.265 4.395.011zm-4.395-.011a38.67 38.67 0 0 0-.323-.029c0 .019-.002.038 0 .056l.323-.027zm4.542-.583c-.473-.539-2.069-1.277-3.881-2.051 1.659 1.06 3.169 1.964 3.881 2.051zm-3.881-2.051a43.261 43.261 0 0 0-.315-.201.71.71 0 0 1-.029.055c.116.049.232.097.344.146zm4.29 1.593c-.169-.698-1.241-2.094-2.485-3.623.976 1.712 1.893 3.213 2.485 3.623zm-2.485-3.623c-.067-.115-.132-.232-.199-.349l-.056.039c.084.103.172.207.255.31z" fill="url(#d)" opacity=".7" transform="matrix(.85 0 0 .85 15.192 17.87)"/><path d="m74.886 78.086-.07-.01-.024.414c.03-.134.063-.27.094-.404zm-.095.403c-.442 1.922-.787 3.649-.629 4.35.349-.628.509-2.38.629-4.35zm-.63 4.35c-.084.15-.176.243-.283.254-.106.01-.216-.064-.327-.195-.004.171-.042.297-.133.356-.09.059-.221.045-.38-.021.076.155.101.285.049.378-.053.094-.176.142-.345.158.137.101.22.204.217.312-.002.107-.089.207-.231.302.169.024.29.079.337.174.048.096.018.225-.064.375.161-.057.292-.065.379-.002.087.063.12.19.116.363.117-.125.229-.196.337-.179.105.014.194.113.27.268.045-.167.113-.279.216-.315.101-.036.225.01.363.111-.036-.167-.029-.299.044-.378.073-.079.205-.096.376-.072-.111-.132-.168-.251-.138-.355.028-.104.136-.18.299-.237-.16-.064-.263-.145-.288-.25-.023-.105.037-.223.154-.349-.172.016-.301-.006-.37-.088-.07-.082-.072-.214-.028-.379-.142.094-.268.134-.367.093-.103-.041-.165-.156-.203-.324zm.568.231c.601-.394 1.557-1.871 2.578-3.558-1.285 1.495-2.391 2.863-2.578 3.558zm2.578-3.559c.089-.102.18-.206.268-.311-.019-.013-.036-.028-.055-.042-.071.119-.142.238-.213.353zm-2.18 4.027c.715-.07 2.25-.934 3.937-1.953-1.833.727-3.45 1.425-3.937 1.953zm3.936-1.954.354-.138c-.01-.021-.021-.04-.028-.059-.108.066-.216.133-.326.197zm-3.804 2.553c.666.27 2.426.218 4.395.101-1.961-.208-3.716-.342-4.395-.101zm4.395.1.339.037.002-.058-.341.021zm-4.554.492c.462.551 2.046 1.321 3.842 2.129-1.639-1.095-3.131-2.027-3.842-2.129zm3.841 2.129c.083.057.167.114.25.168a1.01 1.01 0 0 0 .025-.045c-.09-.039-.184-.081-.275-.123zm-4.261-1.679c.156.701 1.2 2.12 2.414 3.674-.943-1.734-1.83-3.254-2.414-3.674zm2.414 3.671.125.229c.012-.009.024-.016.037-.024l-.162-.205zm-2.991-3.467c-.188.693.076 2.433.43 4.373-.031-1.972-.109-3.73-.43-4.373zm.429 4.373c.001.078.003.158.003.238.014-.002.027-.004.041-.004a19.229 19.229 0 0 0-.044-.234zm-1.036-4.462c-.49.528-1.064 2.189-1.652 4.072.889-1.759 1.637-3.353 1.652-4.072zm-1.653 4.072-.104.208.036.015.068-.223zM73 84.934c-.68.239-1.962 1.446-3.357 2.838 1.607-1.144 3.009-2.209 3.357-2.838zm-3.356 2.838-.205.145c.01.011.02.02.029.032.057-.059.117-.117.176-.177zm3.084-3.387c-.713-.104-2.407.368-4.291.952 1.955-.266 3.688-.556 4.291-.952zm-4.291.954c-.092.013-.187.024-.283.039a.32.32 0 0 0 .013.044c.091-.026.181-.056.27-.083zm4.304-1.567c-.582-.423-2.303-.792-4.242-1.149 1.854.671 3.526 1.22 4.242 1.149zm-4.242-1.149-.305-.112-.015.054.32.058zm4.539.612c-.318-.643-1.668-1.769-3.219-2.986 1.328 1.455 2.553 2.719 3.219 2.986zm-3.22-2.985-.251-.275-.042.046c.099.076.198.152.293.229zm3.733 2.649c.017-.718-.656-2.344-1.464-4.142.5 1.906.998 3.593 1.464 4.142zm-1.464-4.142-.101-.389a1.17 1.17 0 0 0-.063.023l.164.366z" fill="url(#e)" opacity=".4" transform="matrix(.85 0 0 .85 15.192 17.87)"/><path d="M80.093 89.27a2 2 0 1 1-4 .001 2 2 0 0 1 4 0z" fill="#4e60a3"/><path d="M80.093 89.27a2 2 0 1 1-4 .001 2 2 0 0 1 4 0z" opacity=".9"/><path d="M70.717 86.748a.981.981 0 1 1 1.091 1.63.981.981 0 0 1-1.091-1.63z" fill="url(#f)" opacity=".5" transform="matrix(.85 0 0 .85 15.192 17.87)"/><path d="M75.86 83.672c-.251.374-.969.331-1.606-.096-.638-.427-.95-1.078-.7-1.451v-.001c.25-.374.969-.331 1.605.097.639.426.951 1.076.701 1.451z" fill="url(#g)" opacity=".5" transform="matrix(.85 0 0 .85 15.192 17.87)"/><path d="M78.716 82.673c-.568.873-2.036.925-3.275.117-1.24-.808-1.784-2.17-1.215-3.043.568-.872 2.036-.924 3.275-.117 1.239.809 1.783 2.172 1.215 3.043z" fill="url(#h)" opacity=".75" transform="matrix(.85 0 0 .85 15.192 17.87)"/><path d="M60.28 88.208c.687 9.264 9.89 20.045 17.43 18.9 8.923.09 17.734-6.687 17.734-18.959S91.12 65.6 77.486 65.6c-9.775 0-17.207 10.336-17.207 22.608zm7.188-.406c-.43-1.942 4.413-3.377 10.805-2.593 6.39.785 10.827 4.695 10.244 6.667-.323 1.094-9.043 2.759-12.115 2.42-3.114-.344-7.895-1.804-8.934-6.494z" fill="#f0c7b1"/><path d="M72.262 90.163c3.614.398 13.873-1.561 14.253-2.847.687-2.32-4.534-6.921-12.052-7.844-6.46-.792-11.563.344-12.556 2.128.898-6.4 7.7-11.397 15.987-11.434 8.911-.037 16.148 5.676 16.172 12.765.021 7.088-7.185 12.862-16.095 12.902-8.913.037-16.149-5.676-16.173-12.764 0-.105.016-.208.019-.313 1.33 5.327 6.834 7.008 10.445 7.407z" fill="url(#i)" transform="matrix(.85 0 0 .85 14.98 17.658)"/><path d="M61.752 82.523c-.506-2.285 5.191-3.973 12.711-3.051 7.518.923 12.738 5.524 12.052 7.844-.38 1.286-10.639 3.245-14.253 2.847-3.664-.405-9.288-2.123-10.51-7.64z" fill="url(#j)" transform="matrix(.85 0 0 .85 14.98 17.658)"/><path d="M67.805 83.462c3.577-1.681 7.948-1.836 11.762-.854 2.044.477 4.22 1.092 6.004 2.242 1.653.965 2.996 2.125 4.252 3.562-1.141-1.446-2.357-2.65-3.93-3.63-1.935-1.203-4.054-1.95-6.26-2.478-3.897-.957-8.263-.74-11.828 1.158z" fill="#c27b55"/><path d="M68.333 83.975c.748-.3 3.455-.85 4.638-.906 1.433-.07 4.312.106 5.724.36 2.868.517 7.864 2.11 9.927 6.107.634 1.228.062 2.087-.105 2.273.255-2.062-4.112-5.734-10.244-6.463-6.392-.76-11.235.631-10.805 2.514 1.04 4.546 5.82 5.961 8.934 6.294 3.484.374 9.931-1.308 10.783-1.49-1.7.858-6.395 1.781-8.302 1.958-.632.06-1.904.088-2.538.072-5.057-.134-8.644-2.699-9.97-6.17-.851-2.233.08-3.8 1.958-4.55z"/><path d="M137.849 82.523c.506-2.285-5.191-3.973-12.711-3.051-7.518.923-12.738 5.524-12.052 7.844.38 1.286 10.639 3.245 14.253 2.847 3.664-.405 9.288-2.123 10.51-7.64z" fill="url(#k)" transform="matrix(.85 0 0 .85 14.98 17.658)"/><path d="M126.967 89.27a5.1 5.1 0 0 1-10.2 0 5.1 5.1 0 0 1 10.2 0z" fill="#4e60a3"/><path d="m125.328 78.066-.071.009c.029.135.058.271.085.406-.006-.137-.009-.277-.014-.415zm.013.414c.069 1.972.185 3.729.518 4.364.174-.696-.124-2.43-.518-4.364zm.517 4.365c-.042.167-.108.281-.207.319-.101.038-.226-.006-.367-.103.04.167.036.297-.036.378-.072.081-.201.101-.372.078.112.13.171.249.146.353-.028.104-.134.182-.293.242.158.063.265.141.29.245.025.104-.032.223-.145.352.17-.021.3.001.37.082.071.081.075.212.035.379.141-.097.266-.139.365-.1.102.038.166.152.206.32.08-.152.172-.249.279-.26.105-.014.217.059.329.188.002-.172.037-.299.128-.36.087-.061.219-.049.379.013-.078-.152-.104-.281-.056-.377.051-.095.174-.146.345-.166-.141-.099-.228-.2-.225-.308-.001-.108.084-.209.227-.306-.171-.021-.291-.072-.342-.167-.05-.095-.022-.225.057-.377-.161.06-.291.072-.38.011s-.124-.188-.125-.36c-.111.128-.224.199-.33.185-.107-.014-.198-.108-.278-.261zm.608.075c.479-.535 1.021-2.209 1.569-4.104-.853 1.777-1.567 3.386-1.569 4.104zm1.569-4.104c.06-.122.121-.246.179-.37-.021-.007-.042-.017-.063-.026l-.116.396zm-1.063 4.454c.673-.252 1.932-1.483 3.298-2.905-1.582 1.176-2.963 2.269-3.298 2.905zm3.298-2.905.305-.225c-.015-.018-.03-.033-.042-.049-.088.09-.175.183-.263.274zm-3.015 3.449c.713.088 2.399-.417 4.271-1.041-1.948.308-3.678.633-4.271 1.041zm4.271-1.04.337-.052-.014-.057-.323.109zm-4.273 1.653c.591.412 2.318.747 4.263 1.063-1.866-.633-3.549-1.148-4.263-1.063zm4.263 1.063c.095.033.19.067.285.098a.92.92 0 0 0 .013-.05 15.38 15.38 0 0 1-.298-.048zm-4.551-.52c.332.637 1.708 1.738 3.282 2.924-1.358-1.43-2.609-2.668-3.282-2.924zm3.283 2.922.178.189c.01-.012.02-.021.031-.032-.07-.052-.142-.105-.209-.157zm-3.787-2.575c-.003.719.702 2.331 1.547 4.113-.54-1.897-1.071-3.575-1.547-4.113zm1.547 4.114c.021.075.043.152.063.229a.474.474 0 0 1 .039-.014 49.358 49.358 0 0 0-.102-.215zm-2.157-4.042c-.336.637-.461 2.39-.542 4.361.404-1.93.713-3.663.542-4.361zm-.542 4.361c-.017.075-.031.151-.047.228.014.003.024.003.039.005l.008-.233zm-.03-4.581c-.596.407-1.521 1.904-2.508 3.61 1.255-1.52 2.334-2.912 2.508-3.61zm-2.508 3.61c-.052.063-.107.13-.161.193.013.008.024.014.037.024l.124-.217zm2.103-4.069c-.716.083-2.23.978-3.897 2.029 1.818-.762 3.418-1.491 3.897-2.029zm-3.897 2.031c-.087.036-.175.072-.263.11a.273.273 0 0 0 .023.04l.24-.15zm3.752-2.628c-.672-.257-2.43-.168-4.396-.011 1.965.168 3.722.265 4.396.011zm-4.396-.011-.322-.029c-.001.019-.003.038-.001.056l.323-.027zm4.543-.583c-.474-.539-2.069-1.277-3.882-2.051 1.659 1.06 3.169 1.964 3.882 2.051zm-3.882-2.051-.315-.201a1.399 1.399 0 0 1-.028.055c.115.049.232.097.343.146zm4.29 1.593c-.169-.698-1.241-2.094-2.485-3.623.976 1.712 1.893 3.213 2.485 3.623zm-2.485-3.623a19.685 19.685 0 0 1-.198-.349l-.057.039c.085.103.172.207.255.31z" fill="url(#l)" opacity=".7" transform="matrix(.85 0 0 .85 14.767 17.87)"/><path d="m126.886 78.086-.07-.01-.024.414c.029-.134.062-.27.094-.404zm-.095.403c-.443 1.922-.787 3.649-.63 4.35.35-.628.51-2.38.63-4.35zm-.63 4.35c-.084.15-.177.243-.283.254-.106.01-.216-.064-.327-.195-.004.171-.042.297-.133.356-.09.059-.221.045-.38-.021.075.155.101.285.049.378-.054.094-.176.142-.346.158.138.101.22.204.217.312-.002.107-.089.207-.23.302.17.024.289.079.337.174.048.096.018.225-.064.375.162-.057.293-.065.38-.002.087.063.12.19.115.363.117-.125.229-.196.337-.179.105.014.194.113.27.268.046-.167.113-.279.216-.315.101-.036.226.01.363.111-.035-.167-.028-.299.045-.378.072-.079.204-.096.375-.072-.11-.132-.168-.251-.138-.355.027-.104.136-.18.299-.237-.159-.064-.263-.145-.288-.25-.022-.105.038-.223.154-.349-.172.016-.302-.006-.37-.088-.07-.082-.072-.214-.027-.379-.143.094-.269.134-.368.093-.102-.041-.166-.156-.203-.324zm.568.231c.601-.394 1.557-1.871 2.578-3.558-1.285 1.495-2.391 2.863-2.578 3.558zm2.578-3.559c.089-.102.18-.206.269-.311-.02-.013-.037-.028-.056-.042-.071.119-.142.238-.213.353zm-2.18 4.027c.715-.07 2.249-.934 3.937-1.953-1.833.727-3.45 1.425-3.937 1.953zm3.936-1.954.354-.138c-.01-.021-.021-.04-.028-.059-.108.066-.216.133-.326.197zm-3.804 2.553c.666.27 2.426.218 4.396.101-1.963-.208-3.717-.342-4.396-.101zm4.395.1.339.037.002-.058-.341.021zm-4.554.492c.463.551 2.046 1.321 3.842 2.129-1.639-1.095-3.131-2.027-3.842-2.129zm3.841 2.129c.082.057.167.114.25.168a.328.328 0 0 0 .024-.045 15.678 15.678 0 0 1-.274-.123zm-4.26-1.679c.155.701 1.199 2.12 2.413 3.674-.943-1.734-1.829-3.254-2.413-3.674zm2.414 3.671.124.229a.337.337 0 0 1 .037-.024c-.054-.068-.11-.138-.161-.205zm-2.992-3.467c-.188.693.076 2.433.43 4.373-.031-1.972-.109-3.73-.43-4.373zm.429 4.373c.001.078.003.158.003.238.015-.002.026-.004.04-.004a9.592 9.592 0 0 0-.043-.234zm-1.037-4.462c-.489.528-1.064 2.189-1.652 4.072.89-1.759 1.637-3.353 1.652-4.072zm-1.652 4.072-.104.208.035.015.069-.223zM125 84.934c-.68.239-1.961 1.446-3.356 2.838 1.606-1.144 3.008-2.209 3.356-2.838zm-3.356 2.838-.205.145c.01.011.02.02.029.032.057-.059.118-.117.176-.177zm3.084-3.387c-.713-.104-2.406.368-4.29.952 1.954-.266 3.688-.556 4.29-.952zm-4.29.954c-.093.013-.188.024-.283.039l.013.044c.09-.026.18-.056.27-.083zm4.303-1.567c-.582-.423-2.303-.792-4.242-1.149 1.854.671 3.526 1.22 4.242 1.149zm-4.242-1.149-.305-.112a.752.752 0 0 0-.015.054l.32.058zm4.539.612c-.318-.643-1.669-1.769-3.22-2.986 1.329 1.455 2.554 2.719 3.22 2.986zm-3.22-2.985-.251-.275-.043.046c.099.076.2.152.294.229zm3.733 2.649c.017-.718-.656-2.344-1.464-4.142.501 1.906.998 3.593 1.464 4.142zm-1.464-4.142-.102-.389a1.17 1.17 0 0 0-.063.023l.165.366z" fill="url(#m)" opacity=".4" transform="matrix(.85 0 0 .85 14.767 17.87)"/><path d="M123.868 89.27a2 2 0 1 1-4 0 2 2 0 0 1 4 0z" fill="#4e60a3"/><path d="M123.868 89.27a2 2 0 1 1-4 0 2 2 0 0 1 4 0z" opacity=".9"/><path d="M122.718 86.748a.98.98 0 1 1 1.09 1.628.98.98 0 0 1-1.09-1.628z" fill="url(#n)" opacity=".5" transform="matrix(.85 0 0 .85 14.767 17.87)"/><path d="M127.859 83.672c-.251.374-.969.331-1.605-.096-.638-.427-.95-1.078-.7-1.451l.001-.001c.25-.374.969-.331 1.605.097.638.426.95 1.076.699 1.451z" fill="url(#o)" opacity=".5" transform="matrix(.85 0 0 .85 14.767 17.87)"/><path d="M130.717 82.673c-.569.873-2.036.925-3.276.117-1.239-.808-1.784-2.17-1.215-3.043.568-.872 2.035-.924 3.275-.117 1.239.809 1.783 2.172 1.216 3.043z" fill="url(#p)" opacity=".75" transform="matrix(.85 0 0 .85 14.767 17.87)"/><path d="M122.133 65.6c-13.634 0-17.958 10.277-17.958 22.548s8.81 19.05 17.734 18.96c7.539 1.145 16.743-9.637 17.43-18.901.001-12.27-7.431-22.607-17.206-22.607zm1.084 28.696c-3.072.339-11.792-1.326-12.115-2.42-.584-1.972 3.854-5.882 10.245-6.667 6.392-.784 11.234.652 10.804 2.593-1.039 4.69-5.82 6.15-8.934 6.494z" fill="#f0c7b1"/><path d="M127.339 90.163c-3.614.398-13.873-1.561-14.253-2.847-.687-2.32 4.534-6.921 12.052-7.844 6.46-.792 11.563.345 12.556 2.128-.898-6.4-7.7-11.397-15.987-11.434-8.911-.037-16.148 5.676-16.172 12.765-.021 7.088 7.185 12.862 16.095 12.902 8.913.037 16.149-5.676 16.173-12.764 0-.105-.016-.208-.019-.313-1.331 5.327-6.835 7.008-10.445 7.407z" fill="url(#q)" transform="matrix(.85 0 0 .85 14.98 17.658)"/><path d="M137.849 82.523c.506-2.285-5.191-3.973-12.711-3.051-7.518.923-12.738 5.524-12.052 7.844.38 1.286 10.639 3.245 14.253 2.847 3.664-.405 9.288-2.123 10.51-7.64z" fill="url(#r)" transform="matrix(.85 0 0 .85 14.98 17.658)"/><path d="M131.813 83.462c-3.576-1.681-7.947-1.836-11.762-.854-2.043.477-4.22 1.092-6.003 2.242-1.654.965-2.997 2.125-4.252 3.562 1.14-1.446 2.357-2.65 3.93-3.63 1.934-1.203 4.053-1.95 6.259-2.478 3.899-.957 8.264-.74 11.828 1.158z" fill="#c27b55"/><path d="M131.286 83.975c-.748-.3-3.455-.85-4.637-.906-1.434-.07-4.312.106-5.725.36-2.868.517-7.863 2.11-9.926 6.107-.634 1.228-.063 2.087.104 2.273-.255-2.062 4.113-5.734 10.245-6.463 6.392-.76 11.234.631 10.804 2.514-1.039 4.546-5.82 5.961-8.934 6.294-3.484.374-9.931-1.308-10.783-1.49 1.7.858 6.396 1.781 8.302 1.958.633.06 1.904.088 2.538.072 5.057-.134 8.644-2.699 9.97-6.17.852-2.233-.08-3.8-1.958-4.55z"/><path d="M141 113.974c.035 22.622-18.292 40.994-40.938 41.025-22.642.037-41.028-18.273-41.063-40.9-.035-22.62 18.292-41.064 40.937-41.1 22.643-.035 41.031 18.35 41.064 40.975z" fill="url(#s)" transform="matrix(.85 0 0 .85 14.98 17.658)"/><path d="M137.5 53.999c0 20.711-16.789 37.5-37.499 37.5-20.711 0-37.501-16.789-37.501-37.5s16.79-37.5 37.501-37.5c20.71 0 37.499 16.789 37.499 37.5z" fill="url(#t)" transform="matrix(.85 0 0 .85 14.98 17.658)"/><path d="M60.88 80.718c8.46-8.477 14.246-5.027 26-2.774.718.138 5.372 1.308 4.513 2.949-.41.785-1.73.692-2.467.678-11.635-.218-17.293-8.496-28.047-.853zm78.2 0c-8.46-8.477-14.248-5.027-26.001-2.774-.72.138-5.372 1.308-4.515 2.949.41.785 1.73.692 2.468.678 11.635-.218 17.293-8.496 28.047-.853z" fill="#2a232b"/><path d="M92.427 115.832c-.746 1.754 5.044 3.648 7.241 3.765 2.38.125 9.05-2.465 7.919-4.244-1.19-1.865-5.647-.243-7.57-.243-1.915 0-6.59-1.619-7.59.722z" fill="#e1ac8f"/><path d="M101.558 117.157c-.196-.645 1.594-1.346 2.258-1.44.936-.136 2.856.682 2.684 1.353-.156.594-1.825-.453-2.43-.364-.624.09-2.327 1.055-2.512.451zm-5.85-.21c.822 0 2.043.53 2.267.063.268-.557-1.818-1.242-2.431-1.166-.507.06-2.323 1.118-2.073 1.563.233.409 1.152-.46 2.236-.46z" fill="#c27b55"/><path d="M100.055 112.857c.516 0 1.48-.629 1.523-1.896.171-5.106-.812-20.258-1.523-20.204-.663.05-1.927 14.991-1.656 20.204.067 1.277 1.074 1.896 1.656 1.896z" fill="#fff5ef" opacity=".2"/><path d="M99.98 33.068zm0 0z" fill="#2a232b"/><path d="M64.111 42.082c7.851-7.472 37.867-.647 46.917.203 8.621.665 19.997-25.788 37.064 42.057-.038 3.263-1.096 9.038-2.377 13.148-.123-.086-.243-.177-.366-.26 0 0 .44 2.768-5.15 12.231.296-6.862-1.03-11.809-2.119-18.202-13.352-16.989-25.83-20.973-35.326-23.931 6.375 7.441 12.682 14.271 15.44 21.729-11.598-8.14-27.546-24.551-27.546-24.551s1.193 3.998 23.534 24.552C104.88 86.78 87.538 77.43 75.39 59.348c-2.334 3.826 10.54 26.176 10.903 27.031-6.513-5.173-15.367-12.44-17.641-20.927 0 0-1.336 3.437-2.263 7.34-2.446 10.338-2.468 23.19-2.915 26.456-1.415-7.412-1.636-15.71-1.633-15.601-3.32 15.209-.357 25.835-.3 29.515-4.418-8.87-9.013-19.462-10.35-29.354.002 0 9.876-43.086 12.92-41.726z" fill="#2a232b" opacity=".1"/><path d="M39.954 75.344c.068-4.582.952-11.832 2.483-15.963-2.788 2.881-6.299 6.281-9.163 8.075 3.79-3.281 4.965-6.086 13.533-24.055 5.26-11.033 8.744-22.738 19.021-24.115 3.467-.476 6.842.842 10.012 2.202 8.169-7.472 18.352-10.481 27.77-9.631 28.798 2.133 36.479 20.732 51.881 24.455-2.414.705-6.474-.398-8.786-1.486 3.188 4.301 2.06 3.852 9.089 10.881 2.863 2.839 5.51 6.327 8.961 8.376-4.631-.579-7.066-4.109-13.84-7.738.977 1.563 4.462 6.88 10.14 12.32 2.44 2.328 6.46 5.596 9.263 7.576-2.047-.816-8.064-3.167-13.266-7.779 2.694 3.851 10.423 11 6.924 25.399-.707-6.295.001-13.953-5.992-17.76.666 2.805 3.242 8.688 1.363 15.051h-9.294c-.04 3.263-1.141 9.294-2.472 13.404-.128-.086-.253-.177-.382-.26 0 0-.427 2.768-6.242 12.231.308-6.862-.189-11.809-1.32-18.202-13.894-16.989-26.876-20.973-36.755-23.932 6.633 7.442 11.741 16.012 14.613 23.47-9.389-9.91-28.759-25.301-28.759-25.301s.31 4.136 23.555 24.689c-8.031-4.926-25.243-12.755-37.88-30.837-2.43 3.825 9.196 26.175 9.574 27.031-6.778-5.173-12.45-14.14-14.82-22.627 0 0-3.159 5.137-4.12 9.04-2.546 10.338-1.686 18.939-2.149 22.206-1.472-7.413-2.585-11.46-2.583-11.351-3.456 15.209.514 27.534.571 31.215-4.595-8.87-10.26-21.248-11.652-31.14h-9.858c.569-3.678.147-3.688.58-5.444z" fill="#2a232b"/><path d="M34.329 49.35c3.239-.144 4.994.085 8.802-.22.57-1.301 2.328-4.718 2.923-6.01-2.975 2.635-9.15 5.967-11.725 6.23z" fill="#0c080c"/><path d="M116.98 22.758c13.622-1.947 26.264 12.684 37.756 13.602-2.442.501-6.278-.87-8.49-1.91 3.187 4.3 2.329 4.326 9.359 11.356 2.864 2.839 4.904 5.882 8.355 7.93-3.699-.614-6.688-4.212-13.307-7.802C142.876 34.44 131 24.316 116.979 22.758zm-47.815 38.06s-3.159 5.137-4.12 9.04C62.5 80.196 63.36 88.797 62.896 92.064c-1.472-7.413-2.585-11.46-2.583-11.351-.083.363-.157.723-.231 1.083-3.034 14.708.746 26.539.802 30.132-4.595-8.87-10.26-21.163-11.652-31.054h-9.858c.569-3.679.147-3.774.58-5.53.068-4.58.952-11.831 2.483-15.962-2.788 2.881-6.299 6.281-9.163 8.075C37 64.232 38.203 61.456 46.378 44.3c2.519-3.92 5.37-7.631 8.551-11.343-5.95 7.65-9.35 17-10.2 26.35 1.7-5.1 6.867-8.555 10.374-12.608-3.694 5.772-6.36 11.38-7.824 19.408 1.074-1.841 2.593-2.87 3.7-4.25-1.754 5.106-1.242 8.034-.463 11.928.767-6.058 2.04-15.897 5.263-21.278 0 9.35-2.9 18.333.855 28.285-.035-7.367 2.755-14.071 4.697-19.109-.386 1.83-.09 6.337.013 8.201 1.087-5.668 1.824-11.228 5.128-15.795-1.474-8.473-3.798-17.577-.666-19.81-5.09 8.839 10.614 16.552 10.145 16.176 8.783 4.879 14.35 5.474 18.904 6.627-2.971-2.392-4.515-5.367-7.514-7.732 8.5 2.932 20.368 12.003 26.423 15.709 1.616 2.366 1.763 2.968 2.245 4.108-3.47-1.639-7.803-3.18-13.126-4.775 12.247 13.74 9.8 10.969 14.613 23.47-8.343-8.807-8.33-9.06-27.56-24.349 2.324 3.032 8.476 11.464 22.356 23.736-3.136-1.924-26.464-14.502-37.88-30.836-.546 4.44.064 7.355 9.574 27.03-1.741-.533-8.514-6.591-14.82-22.626zm46.843 8.35c7.227 3.415 15.261 8.927 23.629 19.157 1.131 6.393 1.628 11.34 1.32 18.202a125.43 125.43 0 0 0 3.131-5.363c2.841-5.18 3.111-6.868 3.111-6.868.13.083.254.174.382.26 1.331-4.11 2.432-9.885 2.472-13.148h9.123c1.88-6.362-.892-12.957-1.558-15.763 5.993 3.808 6.154 10.83 6.434 17.136 2.865-14.17-5.057-20.944-7.565-24.998 5.245 4.071 11.102 7.25 13.15 8.066-2.805-1.98-6.298-4.65-8.737-6.978-3.094-2.963-5.626-6.103-7.454-8.605-3.983-2.042-6.95-5.1-10.967-7.108 6.738 4.491 8.86 11.62 11.013 18.483-1.032-1.49-2.7-2.496-3.596-3.835 1.064 2.793 2.626 5.69 1.933 9.152-4.25-5.95-5.95-14.45-12.75-19.55 6.867 6.867 7.343 24.954 7.314 28.176-6.929-33.216-36.264-64.47-65.964-52.826 29.75-9.35 55.25 22.1 58.65 49.3-5.95-6.8-7.65-15.3-16.15-19.55 4.25 4.25 6.8 11.05 9.35 16.15-9.35-11.05-17-22.1-29.75-29.75 5.95 6.8 13.6 12.75 17.85 21.25 2.55 2.55 3.4 5.95 5.1 8.5-5.95-5.95-13.426-12.037-21.138-14.294 8.66 7.458 11.058 13.362 11.667 14.805z" fill="#1b141c"/><path d="M115.08 22.613c7.049-.025 26.795 5.52 36.63 24.819-10.536-14.628-21.374-21.366-36.63-24.82zm17.067 27.947c-11.009-23.06-31.584-30.157-42.61-29.445 7.966-.512 30.422 7.65 42.61 29.445zM77.183 30.033c-.518-4.482-6.592-9.086-13.231-6.506-.57.222-1.072.627-1.64.832 7.25-2.619 13.874 1.274 14.871 5.674zm-2.04 2.896c-1.931-2.76-4.543-5.303-7.913-6.118-10.245-2.477-17.91 12.692-19.684 19.48.224-.852 9.007-21.307 19.973-18.755 3.162.721 5.612 2.968 7.623 5.393zm-1.026 1.96c-.96 11.842 26.244 20.201 32.21 25.248-10.619-8.983-32.047-14.53-32.21-25.249zm46.936 26.245c-2.253-3.768-11.612-18.91-26.655-27.919-9.33-5.587-12.952-2.213-14.727-1.39 12.077-5.588 34.202 19.357 41.382 29.31z" fill="#0c080c"/><path d="M146.393 43.343s-11.048-11.916-27.522-17.749c12.313 3.077 19.63 9.134 27.522 17.75zm-27.22-16.722c7.116 2.433 19.42 16.094 20.972 18.759-4.015-6.895-13.45-16.767-20.973-18.759zm-22.421-2.218c13.963 3.204 26.675 18.92 26.675 18.92-5.927-9.173-15.676-18.012-26.675-18.92zm-12.05 8.177c6.76 1.74 22.002 14.337 22.784 15.438-2.2-3.096-15.394-14.397-22.784-15.438zm-4.856 1.323c7.427.961 13.587 7.18 14.506 8.436-3.86-5.28-7.82-8.274-14.506-8.436zm-.741 2.352c7.256 7.518 18.064 9.715 21.984 14.832-5.415-7.069-15.36-8.7-21.984-14.832zm8.86 17.808c-9.53-5.171-16.122-9.662-17.598-10.923-1.56-1.33-5.542-4.53-2.63-7.778-2.161 1.42-1.71 4.574 1.186 7.586 3.148 3.276 18.19 11.115 19.042 11.115-.825-.448-.001 0 0 0zm6.711 3.01c-7.36-1.769-14.898-4.28-21.216-8.54-4.396-2.964-10.935-9.88-7.53-13.941.973-1.166 3.024-1.711 4.502-1.694-1.473-.018-3.255.34-4.393 1.322-3.291 2.843.228 10.11 5.725 14.06 6.653 4.777 15.008 7.095 22.912 8.792zm.37-29.224c1.41.283 2.81.47 4.166.987 11.508 4.388 22.475 17.916 22.475 17.916-5.928-8.855-15.91-17.89-26.641-18.903zm1.056 3.767c13.223 5.09 27.676 22.055 28.526 22.663-6.432-9.752-17.284-19.842-28.526-22.663zM62.676 33.68c-8.774-1.737-12.906 13.093-13.412 13.944 2.978-6.103 7.527-14.507 13.412-13.944zm.09 10.114c-7.447 6.986-5.834 15.829-5.71 19.957-.14-7.5 1.788-15.293 5.71-19.957z" fill="#3a353a"/><path d="M41.747 60.553c-3.383 9.342-2.44 19.023-2.492 19.873-.067.145-.202.45-.27.598.893-.19.694-.005.918-.005 1.711-3.688 3.862-8.507 9.62-16.266-3.646 4.394-6.936 9.01-9.528 14.127 1.54-9.818 7.794-17.96 8.518-18.998-3.434 4.36-6.647 9.019-8.39 14.782.068-4.582 1.121-11.662 2.652-15.793-2.788 2.881-6.298 6.536-9.163 8.33 3.791-3.281 5.134-5.831 13.702-23.8 5.26-11.033 8.236-22.568 18.513-23.945 3.467-.476 6.843.672 10.012 2.032 8.169-7.472 18.352-10.056 27.77-9.206 28.798 2.134 36.048 20.281 51.45 24.004-2.414.706-6.502-.748-8.814-1.836 3.187 4.301 2.329 4.327 9.36 11.356 2.863 2.84 4.904 5.882 8.355 7.93-3.74-.62-6.75-4.292-13.524-7.921.977 1.564 4.785 7.616 10.464 13.056 2.44 2.329 5.932 4.998 8.738 6.978-2.049-.816-7.906-3.995-13.15-8.066 2.507 4.054 10.43 10.829 7.564 24.998-.28-6.307-.442-13.328-6.434-17.136.666 2.806 3.438 9.4 1.558 15.763h1.013c1.82-5.897-.732-11.689-1.772-14.64 5.447 4.93 5.363 15.563 4.82 20.722 2.142-5.823 2.956-11.432 1.24-17.416-.96-3.366-2.975-6.341-5.066-9.104-.144-.195-.298-.39-.443-.586 3.987 3.196 8.943 6.018 13.694 6.919 0 0-14.509-10.387-20.664-19.771 1.53 1.096 3.613 2.839 5.644 4.207 2.933 1.998 5.245 3.01 8.62 2.584-4.013-1.844-6.656-5.771-9.477-8.712-6.265-6.579-3.706-2.907-8.976-9.911 4.25 1.734 6.501 1.564 9.07.637-1.447-.34-2.959-.739-4.319-1.266-11.398-4.412-24.183-24.633-51.204-24.735-9.265-.043-19.245 3.544-25.772 10.616a31.462 31.462 0 0 0-3.434-1.334C57.48 14.9 52.456 28.39 46.021 42.066c-2.448 2.032-7.2 6.75-13.624 7.378 3.12.221 6.409.493 10.25.17-5.626 12.801-5.932 14.195-13.234 20.188 6.248-2.168 8.228-4.65 12.334-9.249zm3.8-16.753c-.596 1.292-2.015 3.689-2.585 4.99-3.808.305-4.717.33-7.956.475 2.576-.263 7.565-2.83 10.54-5.465zm3.38 33.816c0 1.572 1.803 9.831 3.75 14.923-1.003-5.789-1.199-11.832-1.045-17.697a67.983 67.983 0 0 1 2.84-17.808c-4.013 16.677-1.845 38.36 6.144 53.78-1.623-8.083-2.567-16.269-1.539-24.497.238-1.904.561-3.79.986-5.66 0 0-.782-7.115 1.267-18.973-1.395 9.835-.425 19.406 1.496 29.079-.187-7.038.17-14.136 1.972-20.97.985-3.74 2.073-4.913 3.825-9.248-.962-3.485-1.455-7.072-1.794-10.659 1.64 10.906 4.59 17.128 10.498 25.968 1.752 2.61 3.57 5.006 6.086 6.927-1.768-3.094-7.616-16.235-7.965-17.119-1.164-2.95-1.87-6-1.333-9.163-1.734-2.72-3.256-5.576-4.641-8.491 4.444 8.245 10.233 15.478 17.289 21.666 3.646 3.205 7.53 6.163 11.526 8.908 4.114 2.83 8.534 5.04 12.775 7.642-5.542-4.641-11.041-9.69-14.798-13.779-2.278-2.482-4.939-4.99-6.775-7.828-1.827-2.83-2.618-6.07-4.063-9.095 1.437 2.473 2.465 5.117 3.528 6.91.263.442 10.046 7.786 14.356 11.883 5.474 5.194 8.288 6.936 13.473 12.41-2.372-5.253-2.992-7.794-9.46-16.37-4.268-5.662-6.027-5.976-11.713-14.833 1.47 2.014 2.957 3.97 4.65 5.805.883.96 1.784 1.887 2.694 2.822 5.278 1.581 10.166 2.482 18.41 7.6 14.17 8.797 17.17 15.333 22.925 20.943-1.02-3.544-4.148-9.477-6.953-14.365-2.558-4.462-5.372-9.078-8.491-12.869 3.945 3.536 6.86 8.05 9.46 12.614 2.737 4.828 5.789 10.022 6.715 15.564-1.793-1.377-3.409-2.916-4.99-4.54.952 5.381 1.471 10.991 1.224 16.457 7.664-12.48 10.655-30.195 8.372-41.469 5.901 23.052-4.867 37.553-9.91 46.645.391-5.56-.17-18.683-.603-22.44-1.879-2.346-15.225-16.65-35.097-23.07 3.502 3.503 6.57 7.14 8.993 11.484 2.219 3.995 4.335 8.177 5.61 12.776-4.505-4.505-9.417-8.602-14.228-12.759-4.947-4.275-9.724-8.738-14.654-13.03 1.334 1.997 2.907 3.884 12.562 13.302 5.092 4.973 13.03 12.147 13.2 12.334-.85-.323-15.095-7.727-21.776-12.793-6.987-5.295-14.467-11.993-19.193-19.388-.416 5.108 2.602 10.582 4.165 13.88 1.7 3.579 4.232 9.86 6.995 14.416-4.284-2.516-7.523-6.077-10.132-10.319-2.711-4.403-5.151-8.661-6.664-13.625-1.275 2.533-2.67 5.066-3.264 7.862-.63 2.941-1.045 5.908-1.335 8.9-.57 6.01-1.215 12.18-.867 18.224-1.479-4.65-2.61-9.3-3.094-14.17-1.445 8.092-.077 19.958 1.512 31.688-4.376-5.968-8.075-14.586-10.191-22.355-1.393-5.134-2.968-10.664-2.73-14.03z"/><path d="M99.98 33.068z" fill="#26120b"/></svg>