<svg xmlns="http://www.w3.org/2000/svg" width="600" height="600" viewBox="0 0 200 200" style="overflow:hidden!important"><defs><radialGradient id="s" cx="100" cy="114" r="41" gradientUnits="userSpaceOnUse" class="svga-on-canvas-facehighlight-gradient-single-0"><stop stop-opacity=".5" stop-color="#ffe4d6" offset="0"/><stop stop-opacity="0" stop-color="#f0c7b1" offset=".9"/></radialGradient><radialGradient id="t" cx="100" cy="54" r="37" gradientUnits="userSpaceOnUse" class="svga-on-canvas-facehighlight-gradient-single-1"><stop stop-opacity=".5" stop-color="#ffe4d6" offset="0"/><stop stop-opacity="0" stop-color="#f0c7b1" offset=".9"/></radialGradient><radialGradient id="c" cx="129.041" cy="83.945" r="15.117" gradientTransform="scale(-1 1) rotate(5.981 22.864 -1851.752)" gradientUnits="userSpaceOnUse" class="svga-on-canvas-eyesback-gradient-left-0"><stop stop-color="#fff" offset="0"/><stop stop-color="#fcfdfd" offset=".315"/><stop stop-color="#f4f7f8" offset=".504"/><stop stop-color="#e5ecef" offset=".66"/><stop stop-color="#d8e2e7" offset=".76"/></radialGradient><radialGradient id="k" cx="128.643" cy="83.986" r="15.116" gradientTransform="rotate(5.981 122.87 62.427)" gradientUnits="userSpaceOnUse" class="svga-on-canvas-eyesback-gradient-right-0"><stop stop-color="#fff" offset="0"/><stop stop-color="#fcfdfd" offset=".316"/><stop stop-color="#f4f7f8" offset=".505"/><stop stop-color="#e5ecef" offset=".661"/><stop stop-color="#d8e2e7" offset=".76"/></radialGradient><radialGradient id="d" cx="-568.659" cy="-521.042" r="59.751" gradientTransform="matrix(.096 -.0248 .0245 .0961 141.281 119.99)" gradientUnits="userSpaceOnUse" class="svga-on-canvas-eyesiris-gradient-left-1"><stop stop-color="#fff" offset="0"/><stop stop-opacity="0" stop-color="#fff" offset="1"/></radialGradient><radialGradient id="e" cx="-582.838" cy="-519.099" r="59.745" gradientTransform="matrix(.0991 .00089 -.0011 .0991 131.113 135.986)" gradientUnits="userSpaceOnUse" class="svga-on-canvas-eyesiris-gradient-left-2"><stop stop-color="#fff" offset="0"/><stop stop-opacity="0" stop-color="#fff" offset="1"/></radialGradient><radialGradient id="l" cx="-568.654" cy="-521.042" r="59.752" gradientTransform="matrix(.096 -.0248 .0245 .0961 193.28 119.99)" gradientUnits="userSpaceOnUse" class="svga-on-canvas-eyesiris-gradient-right-1"><stop stop-color="#fff" offset="0"/><stop stop-opacity="0" stop-color="#fff" offset="1"/></radialGradient><radialGradient id="m" cx="-582.833" cy="-519.102" r="59.747" gradientTransform="matrix(.0991 .00089 -.0011 .0991 183.113 135.986)" gradientUnits="userSpaceOnUse" class="svga-on-canvas-eyesiris-gradient-right-2"><stop stop-color="#fff" offset="0"/><stop stop-opacity="0" stop-color="#fff" offset="1"/></radialGradient><radialGradient id="i" cx="121.986" cy="82.496" fx="133.239" fy="82.527" r="16.003" gradientTransform="matrix(.9998 .0208 .0166 -.7998 -45.32 145.94)" gradientUnits="userSpaceOnUse" class="svga-on-canvas-eyesfront-gradient-left-3"><stop stop-color="#e1ac8f" offset="0"/><stop stop-opacity=".3" stop-color="#e1ac8f" offset=".7"/><stop stop-opacity="0" stop-color="#f0c7b1" offset="1"/></radialGradient><radialGradient id="j" cx="68.931" cy="105.995" r="29.524" gradientTransform="translate(-1.68 1.313) scale(1.0336)" gradientUnits="userSpaceOnUse" class="svga-on-canvas-eyesfront-gradient-left-4"><stop stop-opacity="0" offset=".95"/><stop stop-opacity=".2" offset="1"/></radialGradient><radialGradient id="q" cx="121.587" cy="82.496" fx="132.839" fy="82.527" r="16.003" gradientTransform="matrix(-.9998 .0208 -.0166 -.7998 244.52 145.948)" gradientUnits="userSpaceOnUse" class="svga-on-canvas-eyesfront-gradient-right-3"><stop stop-color="#e1ac8f" offset="0"/><stop stop-opacity=".3" stop-color="#e1ac8f" offset=".7"/><stop stop-opacity="0" stop-color="#f0c7b1" offset="1"/></radialGradient><radialGradient id="r" cx="69.316" cy="105.995" r="29.524" gradientTransform="matrix(-1.0336 0 0 1.0336 201.68 1.313)" gradientUnits="userSpaceOnUse" class="svga-on-canvas-eyesfront-gradient-right-4"><stop stop-opacity="0" offset=".95"/><stop stop-opacity=".2" offset="1"/></radialGradient><linearGradient id="f" x1="122.67" y1="88.268" x2="123.606" y2="87.152" gradientTransform="translate(-52)" gradientUnits="userSpaceOnUse" class="svga-on-canvas-eyesiris-gradient-left-5"><stop stop-color="#fff" offset="0"/><stop stop-opacity="0" stop-color="#fff" offset="1"/></linearGradient><linearGradient id="g" x1="127.212" y1="82.296" x2="126.463" y2="83.189" gradientTransform="translate(-52)" gradientUnits="userSpaceOnUse" class="svga-on-canvas-eyesiris-gradient-left-6"><stop stop-color="#fff" offset="0"/><stop stop-opacity="0" stop-color="#fff" offset="1"/></linearGradient><linearGradient id="h" x1="129.636" y1="79.822" x2="127.91" y2="81.879" gradientTransform="translate(-52)" gradientUnits="userSpaceOnUse" class="svga-on-canvas-eyesiris-gradient-left-7"><stop stop-color="#fff" offset="0"/><stop stop-opacity="0" stop-color="#fff" offset="1"/></linearGradient><linearGradient id="n" x1="122.67" y1="88.268" x2="123.606" y2="87.152" gradientUnits="userSpaceOnUse" class="svga-on-canvas-eyesiris-gradient-right-5"><stop stop-color="#fff" offset="0"/><stop stop-opacity="0" stop-color="#fff" offset="1"/></linearGradient><linearGradient id="o" x1="127.212" y1="82.296" x2="126.463" y2="83.189" gradientUnits="userSpaceOnUse" class="svga-on-canvas-eyesiris-gradient-right-6"><stop stop-color="#fff" offset="0"/><stop stop-opacity="0" stop-color="#fff" offset="1"/></linearGradient><linearGradient id="p" x1="129.636" y1="79.822" x2="127.91" y2="81.879" gradientUnits="userSpaceOnUse" class="svga-on-canvas-eyesiris-gradient-right-7"><stop stop-color="#fff" offset="0"/><stop stop-opacity="0" stop-color="#fff" offset="1"/></linearGradient><linearGradient id="b" x1="100" y1="142" x2="100" y2="139" gradientUnits="userSpaceOnUse" class="svga-on-canvas-mouth-gradient-single-0"><stop stop-color="#e8b9a0" offset=".1"/><stop stop-color="#e1ac8f" offset="1"/></linearGradient><linearGradient id="a" x1="100" y1="171" x2="100" y2="131" gradientUnits="userSpaceOnUse" class="svga-on-canvas-chinshadow-gradient-single-0"><stop stop-opacity=".8" stop-color="#e1ac8f" offset="0"/><stop stop-color="#c27b55" offset=".7"/></linearGradient></defs><path d="M225 225H-25V-25h250v250z" fill="#ecf0f1"/><path d="M100.404 103.083h-.85v-.85h.85v.85z" fill="#2a232b"/><path d="M181.084 187.47c-1.867-4.035-6.966-10.013-12.631-11.665-7.003-2.042-22.812-4.511-28.673-5.884-4.7-1.102-14.163-9.6-17.48-12.453-.595-.51-1.082-1.563-1.094-2.346-.118-9.234 3.566-33.765 3.566-33.765H75.187s3.684 24.53 3.564 33.765c-.009.783-.499 1.836-1.092 2.346-3.317 2.853-12.78 11.351-17.48 12.453-5.862 1.373-21.67 3.926-28.672 5.969-5.667 1.65-10.765 7.544-12.631 11.578-3.152 6.807-3.897 19.125-3.897 29.75h170c0-10.624-.745-22.942-3.895-29.749z" fill="#f0c7b1"/><path d="M150.262 174.107c20.69 3.01 29.398 7.402 32.125 43.113h2.592c0-10.625-.745-22.943-3.895-29.75-1.867-4.034-6.966-10.012-12.631-11.664-7.003-2.042-22.812-4.512-28.673-5.884-4.7-1.102-15.506-10.259-18.397-13.898 2.856 3.999 10.872 13.264 17.896 15.691 3.36 1.161 6.158 1.69 10.983 2.392zm-89.582-2.392c7.024-2.426 15.04-11.692 17.896-15.69-2.89 3.637-13.697 12.795-18.396 13.897-5.862 1.372-21.67 3.926-28.673 5.968-5.666 1.651-10.765 7.545-12.631 11.58-3.15 6.806-3.896 19.124-3.896 29.749h2.593c2.71-35.482 11.453-40.105 32.125-43.113 4.823-.701 7.622-1.23 10.982-2.39z" fill="#ffe4d6"/><path d="M96.278 185.635s-4.313-1.368-6.02-2.022c-8.882-3.408-37.736-5.616-37.736-5.616s30.391 1.206 37.097 2.362c-.389-4.052-2.564-17.004-2.564-17.004s4.377 14.293 5.448 17.899c.573 1.928 3.775 4.38 3.775 4.38zm9.18-1.14c-.076.061-.163.142-.257.227.096-.072.183-.148.256-.228zm-9.18 1.14s2.46 2.543 3.695 2.575c1.624.044 4.104-2.464 5.229-3.488-1.076.813-3.535 1.182-4.514 1.22-1.13.044-4.41-.307-4.41-.307zm17.866-6.391c-1.314.21-3.728.67-3.728.67l1.943-12.656c-.549 2.61-3.802 13.78-6.902 17.236 1.624-1.374 5.235-2.032 7.076-2.298 8.7-1.262 8.697-1.26 34.903-4.2 0 0-24.71-.131-33.292 1.248z" fill="#e1ac8f"/><path d="M181.084 187.47c-1.867-4.035-6.966-10.013-12.631-11.665-7.003-2.042-22.812-4.511-28.673-5.884-4.7-1.102-14.163-9.6-17.48-12.453-.595-.51-1.082-1.563-1.094-2.346-.118-9.234 3.566-33.765 3.566-33.765H75.187s3.684 24.53 3.564 33.765c-.009.783-.499 1.836-1.092 2.346-3.317 2.853-12.78 11.351-17.48 12.453-5.862 1.373-21.67 3.926-28.672 5.969-5.667 1.65-10.765 7.544-12.631 11.578-3.152 6.807-3.897 19.125-3.897 29.75h170c0-10.624-.745-22.942-3.895-29.749z" fill="none" stroke="#c27b55" stroke-width="1.275"/><path d="M100.021 171.866c8.183 0 16.871-4.943 24.199-10.675-.001-6.702 1.451-19.105 2.652-28.205-15.382-2.247-38.406-2.279-53.766-.152 1.184 8.96 2.625 21.206 2.671 28.02 7.342 5.913 16.045 11.012 24.244 11.012z" fill="url(#a)" transform="matrix(.85 0 0 .85 14.98 17.658)"/><path d="M110.014 218.163c-16.264 0-35.236-.063-57.998-.195l-20.127-.109c-12.153-.066-12.87-.08-14.354-.08l-4.164.006c-3.885-35.594 12.249-44.94 37.198-48.202 6.62-.932 13.131-2.632 18.24-5.926 13.878 18.907 55.09 14.928 62.137-.534 1.182.45 2.159 1.032 3.38 1.473 3.967 2.918 9.412 4.961 14.985 5.27 22.106 1.224 37.756 11.046 37.448 46.444.003.14.004.998-.01 1.266-10.637 0-14.626.103-22.98.223-11.331.161-25.434.363-53.744.363h-.01z" fill="#9d9d9d"/><path d="M185.876 217.102c-.349-6.277-3.454-23.85-8.806-31.91-10.61-15.984-35.921-10.375-41.762-16.74-4.238 8.636-21.229 14.107-26.855 14.91 16.304-5.406 23.151-9.315 25.857-18.59 5.444 7.08 34.913 1.676 46.51 20.682 3.395 5.565 6.624 23.278 5.056 31.648zm-123.457-48.46c1.153-.268 1.729-1.062 2.873-1.372l-1.212-1.608c-7.691 5.995-36.472 2.249-46.34 20.43-3.11 5.73-5.209 19.37-3.564 30.974.457-7.126.68-22.367 6.03-30.428 9.626-14.501 27.179-10.67 40.477-16.809 5.935 7.31 15.205 10.904 24.636 12.39-11.833-3.086-18.617-8.297-22.9-13.577z" fill="#acacac"/><path d="M129.993 164.915c-4.702 9.787-40.248 21.185-60.29.747-1.247.529-4.975 1.796-4.975 1.796 14.6 19.878 57.384 20.003 68.773-.097-.05-.02-2.35-1.858-3.508-2.446z" fill="#8e8080"/><path d="M130.902 163.01c-8 15.998-49.637 18.262-62.06.537-4.536 1.341-8.899 4.2-13.29 4.914-26.283 3.915-45.712 5.882-42.273 49.416 8.45 0-5.619-.055 38.736.183 105.051.603 101.627-.392 134.815-.392.024-.12.012-1.234.018-1.357 1.781-47.97-26.225-45.138-45.152-48.445-2.673-.61-5.157-2.358-7.34-3.354-1.206-.551-2.231-1.047-3.454-1.503zm-62.36 1.073c11.027 19.883 54.585 15.894 62.995.086 1.02.428 1.281.598 2.463 1.017-8.71 18.266-51.8 24.087-69.425.989.124-.035 2.723-1.626 3.966-2.092zm-54.28 53.136c-2.059-22.466 1.527-40.836 27.862-45.343 8.735-1.612 14.073-1.668 21.576-4.925 14.249 23.294 61.284 19.684 71.059-1.11 1.404 1.198 3.593 2.576 6.294 3.218 15.383 3.654 46.612-.76 44.963 48.16-45.948-.598-84.035-1.993-171.755 0z" fill="#6f4e4e"/><path d="M53.8 89.35c-1.263-2.092-5.378-7.819-8.527-7.016-2.56.657-2.527 4.226-2.725 6.337-.289 3.097-.394 8.493.446 10.683.809 2.102 3.366 6.164 4.954 7.714 1.954 1.9 5.075 7.954 5.459 8.582.604.993 1.816 2.414 3.676 2.302 2.61-.157 4.866-2.624 5.07-3.812 1.106-6.452-5.068-19.345-8.353-24.79z" fill="#f0c7b1" stroke="#c27b55" stroke-width="1.275"/><path d="M52.55 102.098c-.122-.479.005-1.286.13-2.065.113-.71.22-1.38.155-1.855-.246-1.776-1.628-5.15-2.53-6.98-1.04-2.104-2.719-4.756-4.827-5.439-.87-.283-1.444.055-1.776.398-.244.251-.3.548-.22.584.081.035.261-.211.525-.441.216-.19-.432-.034 0 0-.174.884-.735 5.356-.349 8.621.305 2.569.893 4.487 1.074 4.775.026.302.07.599.136.886.852 3.749 6.39 8.65 7.679 10.047.238.258.488.41.549.348s-.086-.317-.322-.577c-1.274-1.387-6.776-6.273-7.598-9.89-.873-3.836 3.325-9.525 3.994-10.729.34.565.63 1.108.853 1.56.176.354.369.77.57 1.22-.394.627-4.35 5.208-3.344 8.875.372 1.352 3.248 3.095 4.361 3.572.612.264.842.656 1.108 1.11.31.53.028 1.895 1.046 2.328.207.089.394.124.56.124.287 0 .505-.11.666-.241.017.23.016.526.007.8-.01.355.04.518.126.524.088.008.179-.148.19-.499.014-.433.012-.97-.066-1.227-.228-.756-.925-1.61-1.663-2.513-.726-.889-.846-2.575-1.035-3.316zm-7.847-3.323c-1.996-5.885 1.09-11.245 1.538-12.052.86.339 2.178 1.864 2.738 2.75-.408.708-4.193 5.344-4.276 9.302zm9.182 9.377c-.92-.392-.6-1.686-.897-2.196-.27-.46-.55-.937-1.257-1.241a3.306 3.306 0 0 1-.496-.282c-2.28-5.164.25-7.42.883-7.882.195.63.34 1.21.405 1.674.058.425-.05 1.103-.154 1.758-.13.812-.263 1.652-.125 2.196.208.81.35 2.525 1.097 3.441.664.813 1.346 1.65 1.579 2.334-.1.136-.416.463-1.035.198z" fill="#c27b55"/><path d="M145.935 89.35c1.263-2.092 5.38-7.819 8.527-7.016 2.56.657 2.527 4.226 2.726 6.337.289 3.097.393 8.493-.447 10.683-.808 2.102-3.366 6.164-4.953 7.714-1.955 1.9-5.076 7.954-5.46 8.582-.603.993-1.816 2.414-3.676 2.302-2.61-.157-4.865-2.624-5.07-3.812-1.105-6.452 5.07-19.345 8.353-24.79z" fill="#f0c7b1" stroke="#c27b55" stroke-width="1.275"/><path d="M146.153 105.414c-.739.904-1.435 1.758-1.664 2.514-.078.258-.08.795-.066 1.227.012.351.103.507.191.5.087-.008.136-.17.126-.525-.008-.274-.01-.57.007-.8.16.13.378.241.666.241.165 0 .353-.035.56-.124 1.016-.434.736-1.798 1.045-2.328.267-.454.497-.847 1.11-1.11 1.112-.477 3.989-2.22 4.36-3.573 1.007-3.667-2.95-8.248-3.343-8.874.199-.45.393-.866.568-1.22.224-.452.513-.996.855-1.56.669 1.204 4.866 6.892 3.994 10.73-.824 3.615-6.325 8.502-7.598 9.89-.237.259-.385.513-.324.576.063.063.312-.09.55-.348 1.288-1.397 6.825-6.299 7.677-10.047a6.56 6.56 0 0 0 .138-.887c.18-.286.768-2.204 1.073-4.774.386-3.265-.175-7.738-.349-8.622.432-.034-.216-.188 0 0 .264.23.445.476.524.442.08-.036.025-.332-.219-.584-.332-.343-.906-.681-1.776-.398-2.108.683-3.789 3.334-4.828 5.439-.902 1.83-2.283 5.204-2.53 6.98-.064.474.043 1.145.156 1.855.124.778.252 1.586.13 2.065-.188.74-.307 2.426-1.033 3.315zm4.604-15.941c.56-.886 1.877-2.41 2.737-2.75.448.807 3.535 6.167 1.54 12.052-.084-3.958-3.869-8.594-4.277-9.302zm-5.94 18.48c.232-.684.914-1.522 1.578-2.335.747-.916.89-2.63 1.098-3.44.137-.544.005-1.385-.125-2.197-.104-.654-.212-1.333-.154-1.758.064-.465.209-1.043.403-1.674.635.461 3.163 2.719.884 7.882a3.19 3.19 0 0 1-.497.282c-.707.304-.986.78-1.257 1.241-.297.51.025 1.805-.897 2.197-.618.266-.934-.06-1.033-.199z" fill="#c27b55"/><path d="M149.946 83.963h-.004c-.008.039-10.367 34.23-13.497 44.555a14.59 14.59 0 0 1-3.023 5.428c-5.418 6.115-20.202 21.299-33.425 21.299-13.472 0-28.552-16.189-33.752-22.282a13.852 13.852 0 0 1-2.696-4.9c-3.066-9.819-13.707-43.901-13.716-43.94h-.001a53.06 53.06 0 0 1-1.702-13.29c-.044-28.92 23.081-52.393 51.656-52.438 28.578-.045 51.776 23.354 51.82 52.274a53.03 53.03 0 0 1-1.66 13.294z" fill="#f0c7b1"/><path d="M127.322 26.379c12.164 9.465 20.12 25.038 20.144 42.677a57.34 57.34 0 0 1-1.526 13.294h-.004c-.007.04-9.54 34.23-12.417 44.555-.559 2.004-1.51 3.868-2.78 5.427-4.985 6.116-18.586 21.3-30.751 21.3-12.395 0-26.269-16.19-31.052-22.282a14.252 14.252 0 0 1-2.48-4.9c-2.82-9.819-12.61-43.901-12.619-43.94a57.46 57.46 0 0 1-1.567-13.29c-.024-17.702 7.946-33.353 20.157-42.85C57.812 35.643 48.1 52.09 48.13 70.834a53.054 53.054 0 0 0 1.702 13.289c.01.039 10.651 34.121 13.717 43.94a13.873 13.873 0 0 0 2.696 4.9c5.199 6.093 20.28 22.282 33.752 22.282 13.224 0 28.007-15.183 33.425-21.299a14.584 14.584 0 0 0 3.023-5.428c3.13-10.326 13.489-44.516 13.497-44.555h.004a53.036 53.036 0 0 0 1.66-13.295c-.028-18.68-9.724-35.045-24.284-44.29z" fill="#e8b9a0"/><path d="M149.946 83.963h-.004c-.008.039-10.367 34.23-13.497 44.555a14.59 14.59 0 0 1-3.023 5.428c-5.418 6.115-20.202 21.299-33.425 21.299-13.472 0-28.552-16.189-33.752-22.282a13.852 13.852 0 0 1-2.696-4.9c-3.066-9.819-13.707-43.901-13.716-43.94h-.001a53.06 53.06 0 0 1-1.702-13.29c-.044-28.92 23.081-52.393 51.656-52.438 28.578-.045 51.776 23.354 51.82 52.274a53.03 53.03 0 0 1-1.66 13.294z" fill="none" stroke="#c27b55" stroke-width="1.275"/><path d="m96.227 139.237 8.297-.207c-.961 4.47-7.64 3.828-8.297.207z" fill="url(#b)" transform="matrix(.85 0 0 .85 14.98 17.658)"/><path d="M96.87 136.25c-.315-.043-.267-.492.069-.46.036.004 3.662.463 6.696-.184.328-.063.425.387.11.454-2.377.509-5.453.39-6.874.19zm3.18-3.035c-1.278 0-2.516-.443-3.76-.66-1.395-.243-2.783-.034-4.178.09-1.425.126-4.533-.012-5.41-.567a.686.686 0 0 1 .153-1.232c.522-.187 1.336.201 1.863.295 2.44.438 3.726-.029 5.866-.1 3.274-.099 3.621 1.276 7.705.45 4.39-.887 6.367-.215 9.517-1.164.432-.13.945-.476 1.398-.243a.686.686 0 0 1-.041 1.244c-2.895 1.277-6.098.761-9.312 1.297-1.26.21-2.515.59-3.801.59z" fill="#c27b55"/><path d="M61.752 82.523c-.506-2.285 5.191-3.973 12.711-3.051 7.518.923 12.738 5.524 12.052 7.844-.38 1.286-10.639 3.245-14.253 2.847-3.664-.405-9.288-2.123-10.51-7.64z" fill="url(#c)" transform="matrix(.85 0 0 .85 14.98 17.658)"/><path d="M83.192 89.27a5.1 5.1 0 0 1-10.2 0 5.1 5.1 0 0 1 10.2 0z" fill="#4e60a3"/><path d="m73.328 78.066-.071.009.085.406c-.006-.137-.009-.277-.014-.415zm.013.414c.07 1.972.185 3.729.517 4.364.175-.696-.123-2.43-.517-4.364zm.518 4.365c-.043.167-.108.281-.208.319-.1.038-.226-.006-.368-.103.041.167.037.297-.036.378-.072.081-.201.101-.373.078.113.13.171.249.146.353-.027.104-.134.182-.293.242.159.063.266.141.291.245.025.104-.033.223-.145.352.17-.021.301.001.371.082.071.081.075.212.035.379.141-.097.265-.139.365-.1.101.038.166.152.206.32.081-.152.171-.249.28-.26.104-.014.216.059.329.188.001-.172.037-.299.127-.36.088-.061.219-.049.379.013-.078-.152-.105-.281-.055-.377.05-.095.173-.146.344-.166-.141-.099-.227-.2-.225-.308 0-.108.084-.209.227-.306-.17-.021-.291-.072-.342-.167-.049-.095-.022-.225.058-.377-.162.06-.292.072-.38.011-.089-.061-.125-.188-.125-.36-.112.128-.224.199-.33.185-.108-.014-.199-.108-.278-.261zm.607.075c.479-.535 1.021-2.209 1.57-4.104-.854 1.777-1.569 3.386-1.57 4.104zm1.569-4.104c.06-.122.121-.246.178-.37-.021-.007-.042-.017-.063-.026-.038.133-.076.266-.115.396zm-1.063 4.454c.672-.252 1.931-1.483 3.297-2.905-1.581 1.176-2.963 2.269-3.297 2.905zm3.297-2.905.305-.225c-.014-.018-.03-.033-.042-.049-.087.09-.174.183-.263.274zm-3.015 3.449c.713.088 2.4-.417 4.272-1.041-1.948.308-3.678.633-4.272 1.041zm4.272-1.04.337-.052-.014-.057-.323.109zm-4.273 1.653c.59.412 2.318.747 4.262 1.063-1.865-.633-3.548-1.148-4.262-1.063zm4.263 1.063c.095.033.191.067.285.098a.454.454 0 0 0 .012-.05 18.227 18.227 0 0 1-.297-.048zm-4.551-.52c.333.637 1.708 1.738 3.282 2.924-1.359-1.43-2.609-2.668-3.282-2.924zm3.283 2.922.179.189.03-.032c-.07-.052-.142-.105-.209-.157zm-3.788-2.575c-.003.719.703 2.331 1.547 4.113-.539-1.897-1.07-3.575-1.547-4.113zm1.547 4.114c.021.075.043.152.063.229l.039-.014a8.622 8.622 0 0 0-.102-.215zm-2.156-4.042c-.336.637-.461 2.39-.542 4.361.404-1.93.713-3.663.542-4.361zm-.542 4.361c-.017.075-.031.151-.047.228.014.003.025.003.039.005l.008-.233zm-.029-4.581c-.596.407-1.521 1.904-2.508 3.61 1.254-1.52 2.334-2.912 2.508-3.61zm-2.508 3.61-.162.193.038.024.124-.217zm2.103-4.069c-.716.083-2.231.978-3.898 2.029 1.818-.762 3.418-1.491 3.898-2.029zm-3.899 2.031-.263.11c.006.013.015.027.023.04.081-.049.161-.1.24-.15zm3.752-2.628c-.671-.257-2.429-.168-4.395-.011 1.964.168 3.722.265 4.395.011zm-4.395-.011a38.67 38.67 0 0 0-.323-.029c0 .019-.002.038 0 .056l.323-.027zm4.542-.583c-.473-.539-2.069-1.277-3.881-2.051 1.659 1.06 3.169 1.964 3.881 2.051zm-3.881-2.051a43.261 43.261 0 0 0-.315-.201.71.71 0 0 1-.029.055c.116.049.232.097.344.146zm4.29 1.593c-.169-.698-1.241-2.094-2.485-3.623.976 1.712 1.893 3.213 2.485 3.623zm-2.485-3.623c-.067-.115-.132-.232-.199-.349l-.056.039c.084.103.172.207.255.31z" fill="url(#d)" opacity=".7" transform="matrix(.85 0 0 .85 15.192 17.87)"/><path d="m74.886 78.086-.07-.01-.024.414c.03-.134.063-.27.094-.404zm-.095.403c-.442 1.922-.787 3.649-.629 4.35.349-.628.509-2.38.629-4.35zm-.63 4.35c-.084.15-.176.243-.283.254-.106.01-.216-.064-.327-.195-.004.171-.042.297-.133.356-.09.059-.221.045-.38-.021.076.155.101.285.049.378-.053.094-.176.142-.345.158.137.101.22.204.217.312-.002.107-.089.207-.231.302.169.024.29.079.337.174.048.096.018.225-.064.375.161-.057.292-.065.379-.002.087.063.12.19.116.363.117-.125.229-.196.337-.179.105.014.194.113.27.268.045-.167.113-.279.216-.315.101-.036.225.01.363.111-.036-.167-.029-.299.044-.378.073-.079.205-.096.376-.072-.111-.132-.168-.251-.138-.355.028-.104.136-.18.299-.237-.16-.064-.263-.145-.288-.25-.023-.105.037-.223.154-.349-.172.016-.301-.006-.37-.088-.07-.082-.072-.214-.028-.379-.142.094-.268.134-.367.093-.103-.041-.165-.156-.203-.324zm.568.231c.601-.394 1.557-1.871 2.578-3.558-1.285 1.495-2.391 2.863-2.578 3.558zm2.578-3.559c.089-.102.18-.206.268-.311-.019-.013-.036-.028-.055-.042-.071.119-.142.238-.213.353zm-2.18 4.027c.715-.07 2.25-.934 3.937-1.953-1.833.727-3.45 1.425-3.937 1.953zm3.936-1.954.354-.138c-.01-.021-.021-.04-.028-.059-.108.066-.216.133-.326.197zm-3.804 2.553c.666.27 2.426.218 4.395.101-1.961-.208-3.716-.342-4.395-.101zm4.395.1.339.037.002-.058-.341.021zm-4.554.492c.462.551 2.046 1.321 3.842 2.129-1.639-1.095-3.131-2.027-3.842-2.129zm3.841 2.129c.083.057.167.114.25.168a1.01 1.01 0 0 0 .025-.045c-.09-.039-.184-.081-.275-.123zm-4.261-1.679c.156.701 1.2 2.12 2.414 3.674-.943-1.734-1.83-3.254-2.414-3.674zm2.414 3.671.125.229c.012-.009.024-.016.037-.024l-.162-.205zm-2.991-3.467c-.188.693.076 2.433.43 4.373-.031-1.972-.109-3.73-.43-4.373zm.429 4.373c.001.078.003.158.003.238.014-.002.027-.004.041-.004a19.229 19.229 0 0 0-.044-.234zm-1.036-4.462c-.49.528-1.064 2.189-1.652 4.072.889-1.759 1.637-3.353 1.652-4.072zm-1.653 4.072-.104.208.036.015.068-.223zM73 84.934c-.68.239-1.962 1.446-3.357 2.838 1.607-1.144 3.009-2.209 3.357-2.838zm-3.356 2.838-.205.145c.01.011.02.02.029.032.057-.059.117-.117.176-.177zm3.084-3.387c-.713-.104-2.407.368-4.291.952 1.955-.266 3.688-.556 4.291-.952zm-4.291.954c-.092.013-.187.024-.283.039a.32.32 0 0 0 .013.044c.091-.026.181-.056.27-.083zm4.304-1.567c-.582-.423-2.303-.792-4.242-1.149 1.854.671 3.526 1.22 4.242 1.149zm-4.242-1.149-.305-.112-.015.054.32.058zm4.539.612c-.318-.643-1.668-1.769-3.219-2.986 1.328 1.455 2.553 2.719 3.219 2.986zm-3.22-2.985-.251-.275-.042.046c.099.076.198.152.293.229zm3.733 2.649c.017-.718-.656-2.344-1.464-4.142.5 1.906.998 3.593 1.464 4.142zm-1.464-4.142-.101-.389a1.17 1.17 0 0 0-.063.023l.164.366z" fill="url(#e)" opacity=".4" transform="matrix(.85 0 0 .85 15.192 17.87)"/><path d="M80.093 89.27a2 2 0 1 1-4 .001 2 2 0 0 1 4 0z" fill="#4e60a3"/><path d="M80.093 89.27a2 2 0 1 1-4 .001 2 2 0 0 1 4 0z" opacity=".9"/><path d="M70.717 86.748a.981.981 0 1 1 1.091 1.63.981.981 0 0 1-1.091-1.63z" fill="url(#f)" opacity=".5" transform="matrix(.85 0 0 .85 15.192 17.87)"/><path d="M75.86 83.672c-.251.374-.969.331-1.606-.096-.638-.427-.95-1.078-.7-1.451v-.001c.25-.374.969-.331 1.605.097.639.426.951 1.076.701 1.451z" fill="url(#g)" opacity=".5" transform="matrix(.85 0 0 .85 15.192 17.87)"/><path d="M78.716 82.673c-.568.873-2.036.925-3.275.117-1.24-.808-1.784-2.17-1.215-3.043.568-.872 2.036-.924 3.275-.117 1.239.809 1.783 2.172 1.215 3.043z" fill="url(#h)" opacity=".75" transform="matrix(.85 0 0 .85 15.192 17.87)"/><path d="M60.28 88.208c.687 9.264 9.89 20.045 17.43 18.9 8.923.09 17.734-6.687 17.734-18.959S91.12 65.6 77.486 65.6c-9.775 0-17.207 10.336-17.207 22.608zm7.188-.406c-.43-1.942 4.413-3.377 10.805-2.593 6.39.785 10.827 4.695 10.244 6.667-.323 1.094-9.043 2.759-12.115 2.42-3.114-.344-7.895-1.804-8.934-6.494z" fill="#f0c7b1"/><path d="M72.262 90.163c3.614.398 13.873-1.561 14.253-2.847.687-2.32-4.534-6.921-12.052-7.844-6.46-.792-11.563.344-12.556 2.128.898-6.4 7.7-11.397 15.987-11.434 8.911-.037 16.148 5.676 16.172 12.765.021 7.088-7.185 12.862-16.095 12.902-8.913.037-16.149-5.676-16.173-12.764 0-.105.016-.208.019-.313 1.33 5.327 6.834 7.008 10.445 7.407z" fill="url(#i)" transform="matrix(.85 0 0 .85 14.98 17.658)"/><path d="M61.752 82.523c-.506-2.285 5.191-3.973 12.711-3.051 7.518.923 12.738 5.524 12.052 7.844-.38 1.286-10.639 3.245-14.253 2.847-3.664-.405-9.288-2.123-10.51-7.64z" fill="url(#j)" transform="matrix(.85 0 0 .85 14.98 17.658)"/><path d="M67.805 83.462c3.577-1.681 7.948-1.836 11.762-.854 2.044.477 4.22 1.092 6.004 2.242 1.653.965 2.996 2.125 4.252 3.562-1.141-1.446-2.357-2.65-3.93-3.63-1.935-1.203-4.054-1.95-6.26-2.478-3.897-.957-8.263-.74-11.828 1.158z" fill="#c27b55"/><path d="M68.333 83.975c.748-.3 3.455-.85 4.638-.906 1.433-.07 4.312.106 5.724.36 2.868.517 7.864 2.11 9.927 6.107.634 1.228.062 2.087-.105 2.273.255-2.062-4.112-5.734-10.244-6.463-6.392-.76-11.235.631-10.805 2.514 1.04 4.546 5.82 5.961 8.934 6.294 3.484.374 9.931-1.308 10.783-1.49-1.7.858-6.395 1.781-8.302 1.958-.632.06-1.904.088-2.538.072-5.057-.134-8.644-2.699-9.97-6.17-.851-2.233.08-3.8 1.958-4.55z"/><path d="M137.849 82.523c.506-2.285-5.191-3.973-12.711-3.051-7.518.923-12.738 5.524-12.052 7.844.38 1.286 10.639 3.245 14.253 2.847 3.664-.405 9.288-2.123 10.51-7.64z" fill="url(#k)" transform="matrix(.85 0 0 .85 14.98 17.658)"/><path d="M126.967 89.27a5.1 5.1 0 0 1-10.2 0 5.1 5.1 0 0 1 10.2 0z" fill="#4e60a3"/><path d="m125.328 78.066-.071.009c.029.135.058.271.085.406-.006-.137-.009-.277-.014-.415zm.013.414c.069 1.972.185 3.729.518 4.364.174-.696-.124-2.43-.518-4.364zm.517 4.365c-.042.167-.108.281-.207.319-.101.038-.226-.006-.367-.103.04.167.036.297-.036.378-.072.081-.201.101-.372.078.112.13.171.249.146.353-.028.104-.134.182-.293.242.158.063.265.141.29.245.025.104-.032.223-.145.352.17-.021.3.001.37.082.071.081.075.212.035.379.141-.097.266-.139.365-.1.102.038.166.152.206.32.08-.152.172-.249.279-.26.105-.014.217.059.329.188.002-.172.037-.299.128-.36.087-.061.219-.049.379.013-.078-.152-.104-.281-.056-.377.051-.095.174-.146.345-.166-.141-.099-.228-.2-.225-.308-.001-.108.084-.209.227-.306-.171-.021-.291-.072-.342-.167-.05-.095-.022-.225.057-.377-.161.06-.291.072-.38.011s-.124-.188-.125-.36c-.111.128-.224.199-.33.185-.107-.014-.198-.108-.278-.261zm.608.075c.479-.535 1.021-2.209 1.569-4.104-.853 1.777-1.567 3.386-1.569 4.104zm1.569-4.104c.06-.122.121-.246.179-.37-.021-.007-.042-.017-.063-.026l-.116.396zm-1.063 4.454c.673-.252 1.932-1.483 3.298-2.905-1.582 1.176-2.963 2.269-3.298 2.905zm3.298-2.905.305-.225c-.015-.018-.03-.033-.042-.049-.088.09-.175.183-.263.274zm-3.015 3.449c.713.088 2.399-.417 4.271-1.041-1.948.308-3.678.633-4.271 1.041zm4.271-1.04.337-.052-.014-.057-.323.109zm-4.273 1.653c.591.412 2.318.747 4.263 1.063-1.866-.633-3.549-1.148-4.263-1.063zm4.263 1.063c.095.033.19.067.285.098a.92.92 0 0 0 .013-.05 15.38 15.38 0 0 1-.298-.048zm-4.551-.52c.332.637 1.708 1.738 3.282 2.924-1.358-1.43-2.609-2.668-3.282-2.924zm3.283 2.922.178.189c.01-.012.02-.021.031-.032-.07-.052-.142-.105-.209-.157zm-3.787-2.575c-.003.719.702 2.331 1.547 4.113-.54-1.897-1.071-3.575-1.547-4.113zm1.547 4.114c.021.075.043.152.063.229a.474.474 0 0 1 .039-.014 49.358 49.358 0 0 0-.102-.215zm-2.157-4.042c-.336.637-.461 2.39-.542 4.361.404-1.93.713-3.663.542-4.361zm-.542 4.361c-.017.075-.031.151-.047.228.014.003.024.003.039.005l.008-.233zm-.03-4.581c-.596.407-1.521 1.904-2.508 3.61 1.255-1.52 2.334-2.912 2.508-3.61zm-2.508 3.61c-.052.063-.107.13-.161.193.013.008.024.014.037.024l.124-.217zm2.103-4.069c-.716.083-2.23.978-3.897 2.029 1.818-.762 3.418-1.491 3.897-2.029zm-3.897 2.031c-.087.036-.175.072-.263.11a.273.273 0 0 0 .023.04l.24-.15zm3.752-2.628c-.672-.257-2.43-.168-4.396-.011 1.965.168 3.722.265 4.396.011zm-4.396-.011-.322-.029c-.001.019-.003.038-.001.056l.323-.027zm4.543-.583c-.474-.539-2.069-1.277-3.882-2.051 1.659 1.06 3.169 1.964 3.882 2.051zm-3.882-2.051-.315-.201a1.399 1.399 0 0 1-.028.055c.115.049.232.097.343.146zm4.29 1.593c-.169-.698-1.241-2.094-2.485-3.623.976 1.712 1.893 3.213 2.485 3.623zm-2.485-3.623a19.685 19.685 0 0 1-.198-.349l-.057.039c.085.103.172.207.255.31z" fill="url(#l)" opacity=".7" transform="matrix(.85 0 0 .85 14.767 17.87)"/><path d="m126.886 78.086-.07-.01-.024.414c.029-.134.062-.27.094-.404zm-.095.403c-.443 1.922-.787 3.649-.63 4.35.35-.628.51-2.38.63-4.35zm-.63 4.35c-.084.15-.177.243-.283.254-.106.01-.216-.064-.327-.195-.004.171-.042.297-.133.356-.09.059-.221.045-.38-.021.075.155.101.285.049.378-.054.094-.176.142-.346.158.138.101.22.204.217.312-.002.107-.089.207-.23.302.17.024.289.079.337.174.048.096.018.225-.064.375.162-.057.293-.065.38-.002.087.063.12.19.115.363.117-.125.229-.196.337-.179.105.014.194.113.27.268.046-.167.113-.279.216-.315.101-.036.226.01.363.111-.035-.167-.028-.299.045-.378.072-.079.204-.096.375-.072-.11-.132-.168-.251-.138-.355.027-.104.136-.18.299-.237-.159-.064-.263-.145-.288-.25-.022-.105.038-.223.154-.349-.172.016-.302-.006-.37-.088-.07-.082-.072-.214-.027-.379-.143.094-.269.134-.368.093-.102-.041-.166-.156-.203-.324zm.568.231c.601-.394 1.557-1.871 2.578-3.558-1.285 1.495-2.391 2.863-2.578 3.558zm2.578-3.559c.089-.102.18-.206.269-.311-.02-.013-.037-.028-.056-.042-.071.119-.142.238-.213.353zm-2.18 4.027c.715-.07 2.249-.934 3.937-1.953-1.833.727-3.45 1.425-3.937 1.953zm3.936-1.954.354-.138c-.01-.021-.021-.04-.028-.059-.108.066-.216.133-.326.197zm-3.804 2.553c.666.27 2.426.218 4.396.101-1.963-.208-3.717-.342-4.396-.101zm4.395.1.339.037.002-.058-.341.021zm-4.554.492c.463.551 2.046 1.321 3.842 2.129-1.639-1.095-3.131-2.027-3.842-2.129zm3.841 2.129c.082.057.167.114.25.168a.328.328 0 0 0 .024-.045 15.678 15.678 0 0 1-.274-.123zm-4.26-1.679c.155.701 1.199 2.12 2.413 3.674-.943-1.734-1.829-3.254-2.413-3.674zm2.414 3.671.124.229a.337.337 0 0 1 .037-.024c-.054-.068-.11-.138-.161-.205zm-2.992-3.467c-.188.693.076 2.433.43 4.373-.031-1.972-.109-3.73-.43-4.373zm.429 4.373c.001.078.003.158.003.238.015-.002.026-.004.04-.004a9.592 9.592 0 0 0-.043-.234zm-1.037-4.462c-.489.528-1.064 2.189-1.652 4.072.89-1.759 1.637-3.353 1.652-4.072zm-1.652 4.072-.104.208.035.015.069-.223zM125 84.934c-.68.239-1.961 1.446-3.356 2.838 1.606-1.144 3.008-2.209 3.356-2.838zm-3.356 2.838-.205.145c.01.011.02.02.029.032.057-.059.118-.117.176-.177zm3.084-3.387c-.713-.104-2.406.368-4.29.952 1.954-.266 3.688-.556 4.29-.952zm-4.29.954c-.093.013-.188.024-.283.039l.013.044c.09-.026.18-.056.27-.083zm4.303-1.567c-.582-.423-2.303-.792-4.242-1.149 1.854.671 3.526 1.22 4.242 1.149zm-4.242-1.149-.305-.112a.752.752 0 0 0-.015.054l.32.058zm4.539.612c-.318-.643-1.669-1.769-3.22-2.986 1.329 1.455 2.554 2.719 3.22 2.986zm-3.22-2.985-.251-.275-.043.046c.099.076.2.152.294.229zm3.733 2.649c.017-.718-.656-2.344-1.464-4.142.501 1.906.998 3.593 1.464 4.142zm-1.464-4.142-.102-.389a1.17 1.17 0 0 0-.063.023l.165.366z" fill="url(#m)" opacity=".4" transform="matrix(.85 0 0 .85 14.767 17.87)"/><path d="M123.868 89.27a2 2 0 1 1-4 0 2 2 0 0 1 4 0z" fill="#4e60a3"/><path d="M123.868 89.27a2 2 0 1 1-4 0 2 2 0 0 1 4 0z" opacity=".9"/><path d="M122.718 86.748a.98.98 0 1 1 1.09 1.628.98.98 0 0 1-1.09-1.628z" fill="url(#n)" opacity=".5" transform="matrix(.85 0 0 .85 14.767 17.87)"/><path d="M127.859 83.672c-.251.374-.969.331-1.605-.096-.638-.427-.95-1.078-.7-1.451l.001-.001c.25-.374.969-.331 1.605.097.638.426.95 1.076.699 1.451z" fill="url(#o)" opacity=".5" transform="matrix(.85 0 0 .85 14.767 17.87)"/><path d="M130.717 82.673c-.569.873-2.036.925-3.276.117-1.239-.808-1.784-2.17-1.215-3.043.568-.872 2.035-.924 3.275-.117 1.239.809 1.783 2.172 1.216 3.043z" fill="url(#p)" opacity=".75" transform="matrix(.85 0 0 .85 14.767 17.87)"/><path d="M122.133 65.6c-13.634 0-17.958 10.277-17.958 22.548s8.81 19.05 17.734 18.96c7.539 1.145 16.743-9.637 17.43-18.901.001-12.27-7.431-22.607-17.206-22.607zm1.084 28.696c-3.072.339-11.792-1.326-12.115-2.42-.584-1.972 3.854-5.882 10.245-6.667 6.392-.784 11.234.652 10.804 2.593-1.039 4.69-5.82 6.15-8.934 6.494z" fill="#f0c7b1"/><path d="M127.339 90.163c-3.614.398-13.873-1.561-14.253-2.847-.687-2.32 4.534-6.921 12.052-7.844 6.46-.792 11.563.345 12.556 2.128-.898-6.4-7.7-11.397-15.987-11.434-8.911-.037-16.148 5.676-16.172 12.765-.021 7.088 7.185 12.862 16.095 12.902 8.913.037 16.149-5.676 16.173-12.764 0-.105-.016-.208-.019-.313-1.331 5.327-6.835 7.008-10.445 7.407z" fill="url(#q)" transform="matrix(.85 0 0 .85 14.98 17.658)"/><path d="M137.849 82.523c.506-2.285-5.191-3.973-12.711-3.051-7.518.923-12.738 5.524-12.052 7.844.38 1.286 10.639 3.245 14.253 2.847 3.664-.405 9.288-2.123 10.51-7.64z" fill="url(#r)" transform="matrix(.85 0 0 .85 14.98 17.658)"/><path d="M131.813 83.462c-3.576-1.681-7.947-1.836-11.762-.854-2.043.477-4.22 1.092-6.003 2.242-1.654.965-2.997 2.125-4.252 3.562 1.14-1.446 2.357-2.65 3.93-3.63 1.934-1.203 4.053-1.95 6.259-2.478 3.899-.957 8.264-.74 11.828 1.158z" fill="#c27b55"/><path d="M131.286 83.975c-.748-.3-3.455-.85-4.637-.906-1.434-.07-4.312.106-5.725.36-2.868.517-7.863 2.11-9.926 6.107-.634 1.228-.063 2.087.104 2.273-.255-2.062 4.113-5.734 10.245-6.463 6.392-.76 11.234.631 10.804 2.514-1.039 4.546-5.82 5.961-8.934 6.294-3.484.374-9.931-1.308-10.783-1.49 1.7.858 6.396 1.781 8.302 1.958.633.06 1.904.088 2.538.072 5.057-.134 8.644-2.699 9.97-6.17.852-2.233-.08-3.8-1.958-4.55z"/><path d="M141 113.974c.035 22.622-18.292 40.994-40.938 41.025-22.642.037-41.028-18.273-41.063-40.9-.035-22.62 18.292-41.064 40.937-41.1 22.643-.035 41.031 18.35 41.064 40.975z" fill="url(#s)" transform="matrix(.85 0 0 .85 14.98 17.658)"/><path d="M137.5 53.999c0 20.711-16.789 37.5-37.499 37.5-20.711 0-37.501-16.789-37.501-37.5s16.79-37.5 37.501-37.5c20.71 0 37.499 16.789 37.499 37.5z" fill="url(#t)" transform="matrix(.85 0 0 .85 14.98 17.658)"/><path d="M60.88 80.718c8.46-8.477 14.246-5.027 26-2.774.718.138 5.372 1.308 4.513 2.949-.41.785-1.73.692-2.467.678-11.635-.218-17.293-8.496-28.047-.853zm78.2 0c-8.46-8.477-14.248-5.027-26.001-2.774-.72.138-5.372 1.308-4.515 2.949.41.785 1.73.692 2.468.678 11.635-.218 17.293-8.496 28.047-.853z" fill="#2a232b"/><path d="M92.427 115.832c-.746 1.754 5.044 3.648 7.241 3.765 2.38.125 9.05-2.465 7.919-4.244-1.19-1.865-5.647-.243-7.57-.243-1.915 0-6.59-1.619-7.59.722z" fill="#e1ac8f"/><path d="M101.558 117.157c-.196-.645 1.594-1.346 2.258-1.44.936-.136 2.856.682 2.684 1.353-.156.594-1.825-.453-2.43-.364-.624.09-2.327 1.055-2.512.451zm-5.85-.21c.822 0 2.043.53 2.267.063.268-.557-1.818-1.242-2.431-1.166-.507.06-2.323 1.118-2.073 1.563.233.409 1.152-.46 2.236-.46z" fill="#c27b55"/><path d="M100.055 112.857c.516 0 1.48-.629 1.523-1.896.171-5.106-.812-20.258-1.523-20.204-.663.05-1.927 14.991-1.656 20.204.067 1.277 1.074 1.896 1.656 1.896z" fill="#fff5ef" opacity=".2"/><path d="M99.98 33.068zm0 0zM56.906 112.48c-4.606-2.658-7.771-5.633-10.96-12.878-.432-1.096-1.609-4.748-1.609-5.595-1.861-1.535-3.916-6.07-4.815-8.314-2.552-8.752-2.224-19.125-.43-24.088l-.303-.15c-2.197 3.365-2.79 6.484-3.314 9.498-2.338-7.706-1.051-16.462 4.901-24.022-2.736.685-3.805 1.225-6.285.762 4.767-2.485 19.01-12.81 22.913-19.814-3.36.861-6.98 2.632-9.747 4.455 3.501-11.025 17.728-20.117 29.256-19.116-2.08-1.848-3.877-4.207-5.359-6.486 3.137 1.03 8.521 3.133 13.773 4.423 18.065 3.787 12.994 2.113 29.701-3.898-.69 2.475-.683 2.61-2.161 6.123 12.076-4.772 23.706.195 27.353 6.986h.007c.053.098.104.197.155.296-1.635-.55-3.043-.693-4.744-.79 3.021 5.203 5.043 5.69 14.885 8.62 1.019.32 2.677.74 4.063.983-2.056 1.47-3.494 1.836-5.99 2.159 3.963 1.686 6.27 4.725 8.017 8.724 2.528 6.03 2.965 10.88 2.516 16.432-1.095-1.678-2.572-4.161-4.068-6.205l-.291.172c3.725 8.042 2.43 14.693 16.57 24.349-1.22.273-2.6.416-4.02.416-2.477 0-4.615-.405-6.705-1.101.597 7.379.146 10.986-.595 14.16-1.724 6.497-5.146 11.143-11.586 12.707-3.757 4.91-7.602 6.944-10.269 7.402 1.876-3.1 6.26-11.567 7.01-14.902l-.354-.631c-8.083-1.998-13.778-8.128-14.93-16.9-1.656 2.486-3.204 4.34-8.06 8.066-.396-9.824-5.224-22.447-11.263-30.36-.032 2.741.056 2.954.755 6.657h.006c.894 4.344 3.587 9.852 4.485 12.51-2.64-1.505-4.832-2.516-7.717-7.067-1.403-2.208-3.1-5.95-3.866-8.517l-.331.028c-.197 1.624-.174 2.646-.162 3.194 0 1.813 2.391 10.944 3.956 13.6-5.584-2.813-8.087-7.433-9.945-12.01l-.327.054c-.18 2.813.128 9.098 1.348 13.872-4.489-1.352-7.181-3.309-9.544-6.916-1.564-2.93-1.634-4.188-1.969-7.072-5.04 6.693-13.297 12.314-18.938 14.075l-.144.04c.765-1.513 1.569-2.998 2.346-4.438 2.135-3.948 3.338-6.233 4.808-9.893-13.634 9.421-16.317 23.857-12.793 39.843-2.379-1.525-2.76-1.833-4.743-3.935.46 3.108.31 7.754-1.524 12.063l-.029.066.029.067c1.023 2.412.683 1.735 1.037 2.296z" fill="#2a232b"/><path d="M121.403 83.927c-.492-9.511-5.035-21.5-10.778-29.333 11.936 3.256 15.088 22.243 10.778 29.333zm-16.314-35.336c-3.07 6.139-.364 18.446 10.324 24.54-4.788-5.685-8.958-11.393-10.324-24.54zm2.075 25.535c-6.113-6.832-8.802-16.298-8.795-24.848-2.987 5.316-1.819 19.682 8.924 25.09-.041-.07-.085-.163-.129-.242zM90.63 49.108c-3.71 6.037-8.039 22.424 7.74 27.177-9.399-7.75-9.44-16.209-7.74-27.177zM67.773 76.412c.064-.017.117-.034.143-.04 5.464-1.705 14.144-8.133 19.216-14.548.328-2.146.306-3.807.744-5.915-3.93 7.23-15.383 17.222-20.103 20.503zm-8.006 17.02c-5.871-9.199-1.012-26.713 1.112-28.535-3.421 2.105-10.802 21.52-1.112 28.536zm93.765-14.96c-.767 12.925-7.93 21.887-15.616 30.187 8.8-1.68 18.193-16.01 15.616-30.186zm-32.519-49.757c12.24 6.749 15.35 10.123 19.766 25.493 0-11.082-6.777-26.361-19.766-25.493zm-12.751-2.557c-2.841 11.56 2.363 19.55 10.928 23.12-5.616-5.283-11.183-14.886-10.928-23.12zm-63.285 39.68c5.73.323 14.225-2.863 15.902-9.93-3.973 5.277-7.43 8.233-15.902 9.93zm71.094-42.655c12.432-4.788 20.507-3.784 23.91-2.521-2.952-1.895-14.613-5.142-23.91 2.52zm-68.096 8.105c8.608-5.28 12.457-4.488 17.215-4.765-6.503-2.683-11.328-.894-17.215 4.765zm84.664-5.945c9.136 5.26 11.032 8.234 21.546 4.132-5.756 1.92-13.406-.074-21.546-4.132zm-43.932-2.198c5.304.003 8.7 1.983 11.272 3.916-1.402-2.541-7.044-6.03-11.272-3.916zm48.507 34.734c-1.57 9.577 4.265 13.67 12.279 14.952-5.077-1.539-10.708-6.867-12.279-14.952zm-70.763-2.734c7.482-3.764 17.307-12.53 17.307-20.573-3.546 6.98-8.899 14.536-17.307 20.573zm104.283 19.817c-10.366.928-15.967-7.674-22.305-14.804 2.381 6.348 6.985 10.474 12.426 14.452a20.48 20.48 0 0 0 6.064.912c1.42 0 2.8-.143 4.02-.416l-.205-.144zM46.862 74.73c-3.077 10.209-5.149 26.227 10.044 37.75-8.663-9.822-11.545-25.742-10.044-37.75zm39.94-47.138c-10.35.213-18.698 1.116-23.885 13.96 11.156-10.627 16.066-11.369 23.885-13.96zM35.48 66.719c1.47-5.655 5.335-9.56 11.117-11.709-7.303.135-9.96 3.606-11.117 11.709zm96.655 1.12c-5.85 9.318.629 21.21 12.196 24.986-11.62-11.971-11.957-15.121-12.196-24.986zm26.396-11.725c-2.4-10.406-7.057-16.156-14.115-12.157 7.303-2.406 8.91 5.32 14.115 12.157zm-31.823 22.514c8.55-8.619 5.667-21.44-1.386-26.891 5.574 11.35 4.232 17.523 1.386 26.891z" fill="#1b141c"/><path d="M108.652 42.083c-6.59-4.54-9.723-8.19-14.45-14.167 4.508 4.082 10.116 9.753 14.45 14.167zm11.616-4.533c10.774 2.355 8.826 1.21 15.867 7.933-5.06-7.242-6.456-7.463-15.867-7.933zm3.4 8.5c6.017 2.805 9.907 13.537 11.05 19.833.07-7.48-3.81-17.849-11.05-19.833zm10.484 23.233c-.373 7.282 2.618 10.144 6.233 18.417-1.772-7.756-5.214-10.296-6.233-18.417zm15.866 6.233c-.601 7.158.195 12.433-3.116 18.134 4.475-5.3 3.75-11.255 3.116-18.134zm7.65-.283c1.827 5.076-.452 14.807-3.116 19.267 4.26-4.996 6.142-13.934 3.116-19.267zm-12.75-28.9c9.9 1.725 3.989 15.435 16.434 23.233-10.87-10.353-5.916-23.39-16.434-23.233zm-5.383-12.183c9.102 1.117 13.313 4.581 16.717 11.9-2.122-8.66-8.183-12.435-16.717-11.9zm-26.633 18.416c8.127 5.429 11.198 14.967 11.333 24.65 1.941-9.662-1.415-20.687-11.333-24.65zm-.284-35.983c11.259-1.246 11.642-1.642 18.984.283-5.175-2.722-9.133-3.527-18.984-.283zm-34.283-5.1c7.798 5.763 24.923 10.734 32.017-.85-7.571 8.535-21.79 5.9-32.017.85zM93.068 21.4c4.296-.638 6.751.461 11.334 6.517-2.311-5.167-6.03-8.485-11.334-6.517zm-7.933 3.4c-7.239-.84-13.706-.61-16.717 7.083 4.2-6.328 7.95-6.226 16.717-7.083zm-29.467-.283c3.98-3.44 12.068-8.625 18.983-7.65-6.606-2.438-14.696 2.006-18.983 7.65zm-11.05 18.416c7.003-2.228 14.211-5.757 17.567-12.183-3.987 4.786-10.389 8.015-17.567 12.183zm12.75-.566c-1.016 10.792-6.857 13.696-11.9 21.816 8.302-8.345 13.013-12.084 11.9-21.816zm15.867 15.3c-10.448 1.078-14.759 15.681-14.167 26.066 1.657-9.603 5.161-23.098 14.167-26.067zm5.667-6.234c-.863 6.5-1.65 9.754-4.533 17.85 4.166-6.616 4.973-11.724 4.533-17.85zm18.133-3.4c-2.057 7.01-3.511 14.28-.567 20.967-1.286-6.274-.207-11.026.567-20.967zM89.668 30.75c-2.243 9.304-3.415 12.837-7.65 18.983 5.76-5.478 7.378-10.792 7.65-18.983zm14.734 15.583c-3.554 5.532-3.795 10.323-2.267 16.717-.133-6.725-.055-10.61 2.267-16.717zm4.816 2.267c-2.12 5.447-1.723 9.645.567 14.166-1.231-4.654-1.579-7.54-.567-14.166zm-52.7 17.283c-4.602 5.089-4.12 12.455-3.4 19.267.873-7.978.17-13.717 3.4-19.267zm-7.366 6.233c-2.276 6.433-2.683 15.21 1.133 21.25-2.208-6.043-1.849-15.243-1.133-21.25zm-6.234-13.6C39.254 66.984 38.43 73.79 42.35 84.3c-1.375-9.123-1.748-14.593.567-25.784zm-5.666 0c9.397-14.958 15.166-10.114 18.983-17.566-5.624 6.53-13.206 1.903-18.983 17.566zm39.1-24.366c.101 5.237-2.287 9.202-4.25 15.016 2.821-4.73 5.487-9.68 4.25-15.016zm57.516-12.75c2.393 5.055 8.342 7.696 13.6 7.65-4.17-.864-10.504-3.584-13.6-7.65zm4.817 35.983c-.22 4.584 3.028 9.278 6.8 11.617-2.456-2.217-6.128-7.444-6.8-11.617z" fill="#3a353a"/><path d="M171.353 75.182c-5.324-3.618-6.23-4.648-9.332-8.126 0 0-.11-.128-.306-.349-5.691-7.967-3.554-8.17-7.191-16.022 1.608 2.197 3.175 4.877 4.336 6.613.178-2.561 1.043-8.576-2.492-17.009-1.551-3.553-3.978-7.055-7.53-8.568 3.491-.451 4.939-1.784 5.789-2.346-1.47-.227-3.361-.703-4.454-1.045-9.514-2.84-11.776-3.362-14.629-8.27 2.204.125 3.48.427 4.777.9-.119-.246-.255-.51-.39-.765h-.01c-1.432-2.664-4.84-5.721-9.189-7.403-5.66-1.84-11.43-2.295-17.95.28 1.404-3.332 1.392-3.57 2.099-6.086-17.073 6.097-11.79 7.802-29.912 4.004-5.492-1.35-11.217-3.621-14.212-4.565.97 1.543 3.234 4.777 5.262 6.58-10.39-.905-25.6 7.807-29.062 19.736 3.336-2.27 7.293-3.979 9.707-4.598C53.007 34.7 38.28 45.51 33.578 47.76c2.862.641 4.06.03 6.358-.544-4.687 5.95-6.965 13.868-5.032 22.227v.009c.213.906.338 1.344.62 2.218.557-3.198 1.063-6.53 3.41-10.123-1.686 4.663-2.25 15.016.433 24.208.969 2.421 3.001 6.826 4.802 8.33 0 .338.742 3.351 1.624 5.584 3.183 7.232 6.34 10.342 11.594 13.277-.91-1.566-.13.073-1.36-2.83 1.303-3.062 1.717-5.653 1.717-8.713.02-.904-.07-2.688-.102-2.907 1.802 1.912 2.421 2.298 4.751 3.791-5.57-24.565 5.72-35.292 12.167-39.747-2.042 5.09-4.729 9.373-7.11 14.137.137-.035.443-.124.51-.145h.01c6.311-1.969 14.544-8.192 18.767-13.795.295 2.538.406 3.837 1.947 6.723 2.542 3.88 5.417 5.76 9.928 7.072-1.322-4.95-1.59-11.459-1.42-14.11 2.04 5.023 4.616 9.43 10.251 12.19h.009c.119.059.246.118.357.178-1.463-1.474-4.301-11.957-4.301-14.025-.014-.6-.031-1.59.16-3.17.803 2.7 2.526 6.42 3.885 8.559 3.04 4.793 5.294 5.683 8.16 7.344-.944-3.011-2.88-6.43-4.377-11.909-.188-.68-.264-1.139-.272-1.139-.586-3.122-.756-3.733-.73-5.992 5.301 6.945 10.618 19.698 10.939 30.2 2.926-2.237 5.861-4.558 8.109-7.93 1.153 8.74 7.29 14.67 14.926 16.575.093.17.195.34.29.51-.701 3.134-5.146 11.849-7.166 15.096 2.675-.306 6.763-2.342 10.701-7.472 6.474-1.569 9.917-6.277 11.654-12.818.653-2.797 1.229-6.506.62-13.957 3.901 1.301 8.084 1.241 10.946.519zM57.555 97.418a45.09 45.09 0 0 0-.884-5.865c.745.85 1.362 1.526 3.085 2.89a43.49 43.49 0 0 0 .816 5.924c-.85-.741-2.232-1.758-3.017-2.95zm85.314-11.263c1.086 1.786 2.546 3.15 1.965 6.469-.407-.85-1.294-3.392-1.965-6.469zm17.052-11.696c-.387 10.562-.921 22.475-11.374 26.427 6.763-9.502 5.082-13.724 5.356-19.346-.692 3.89-.087 1.13-.841 7.148-1.103 5.644-7.186 16.598-14.195 19.389.52-.73 1.609-2.498 2.303-3.595 3.701-6.01 5.014-9.633 5.134-13.779-.017-.289-.05-.459-.05-.459-.286-2.267-2.158-4.554-3.775-6.17-.203-1.271-.947-6.55-1.292-12.139-.228 3.145-.287 7.624.17 11.05l.009.009c.732 5.006 1.907 8.677 2.574 9.588-1.318-.53-1.504-.664-2.354-1.122-7.414-4.097-9.877-8.391-11.441-16.048 1.356-2.315 1.477-3.72 1.887-5.508v-.017c.437-1.332-.476-8.152-.476-9.019a.57.57 0 0 1 .025-.187c-.073.074-.082.687-.085.79-.195 6.104.48 8.055-2.363 13.61-.238.382-.442.815-.723 1.206-1.842 2.369-1.706 2.4-6.613 7.004.577-9.56-4.58-22.94-11.457-29.537.093-3.18-.067-4.225-.579-5.075.6 1.473.202 3.188 0 5.066-.487 4.015.15 9.917 4.565 18.369-5.261-4.055-8.605-10.81-10.302-17.034.478-2.993.77-3.931 1.173-7.378-1.156 5.07-2.635 7.912-2.635 13.09.113 2.92 2.066 9.385 4.114 12.775-3.502-2.514-7.453-7.716-9.308-14.356.508-6.746 1.265-10.52 1.82-14.119-2.991 9.7-3.036 13.353-3.273 17.697-.017 1.088.008 2.185.008 3 .009.409.009.749.017.995.026.238.034.374.034.374.463 4.626 1.272 7.385 1.734 8.534-4.208-1.85-8.441-5.896-9.435-10.94-1.374-6.4 2.017-14.976 2.278-15.826-.725 1.45-3.736 6.767-3.833 12.724-1.723 1.919-3.935 4.038-4.786 4.794-4.764 4.321-9.333 7.4-13.566 9.512l.349-.544-.009.025c5.222-7.687 8.47-14.172 8.653-23.417a43.422 43.422 0 0 1-2.436 9.568c-8.891 4.658-15.94 15.784-15.235 31.648-.128-.144-.264-.28-.4-.425-6.004-5.916-3.992-12.15-2.27-19.116 1.973-7.848 3.154-8.084 4.004-8.934-2.94 1.76-4.757 7.497-5.797 10.923-2.32 7.474-1.257 11.494.238 14.152 1.161 7.79 1.894 12.507.179 19.372-1.034-2.325-2.455-8.316-2.652-11.34-.572-5.07-.649-6.766-1.063-12.97-.42 6.294-1.1 17.035 3.077 25.39-8.797-8.378-12.634-21.21-7.88-36.432-2.85 6.193-4.142 11.788-3.263 18.496-5.441-9.486-5.968-22.933-3.52-32.708 2.22-2.676 4.832-3.882 6.529-4.734-5.22 1.902-6.04 2.893-8.194 5.261-1.498 2.092-2.498 4-3.264 6.902-.456-6.943 1.313-13.736 6.29-20.374 4.805-1.282 9.183-3.971 13.09-6.902-5.76 3.176-9.304 4.974-15.198 6.638-.754.223-2.893.852-3.69.952C42.244 44.101 53.983 35.71 57.198 28c3.375-1.008 5.397-1.133 7.684-1.411-6.07 0-10.361.515-16.906 4.7 3.924-7.7 16.695-17.629 28.866-17.629 2.42 1.882 5.71 3.08 8.661 4.76-1.844-1.575-6.301-3.944-7.888-5.193 0-.009 0-.009-.008 0-1.013-.808-1.47-.835-5.007-5.33 7.995 3.803 10.832 4.514 14.085 5.27 15.923 3.623 14.636.849 27.106-4.947-.3.86-2.128 5.928-2.788 6.571-1.765 3.119-3.905 5.57-7.233 7.233 3.808-1.262 6.513-4.014 8.389-7.658.553-.276 4.018-1.16 5.415-1.309 6.985-.753 10.029-.122 14.994 2.125.85.472 3.996 2.073 6.171 4.598-5.71-1.785-14.683.591-20.332 2.482 1.454-.277 8.886-1.832 13.277-2.159 1.607-.136 3.196-.068 3.196-.076.077 0 .153.008.23.008 2.229 4.634 3.57 6.304 14.9 9.061 1.167.27 2.413.42 3.256.527-1.968.873-3.055 1.087-5.372 1.284-8.953.182-10.33-4.08-15.81-5.746 5.782 2.576 5.588 6.63 16.124 6.63 3.097 1.152 5.814 5.777 7.174 8.916 1.944 4.663 2.819 9.845 3.034 14.892-1.37-2.502-6.552-10.523-9.41-11.534-.646-.252-1.19-.258-1.818-.196 1.756 0 2.974 1.056 4.003 2.491h.009c2.164 3.154 3.347 7.736 4.462 11.56 0 0 .052.17.136.459 2.152 7.492 6.882 12.82 13.405 16.43-13.714.607-15.02-8.098-21.76-15.572 3.887 5.332 5.876 12.42 12.48 15.223zm-11.297-2.762c-2.19-5.301-.864-3.223-3.588-8.628 2.993 3.759 3.213 6.673 4.87 10.005-6.16-1.646-12.58-7.96-12.75-14.943-.033-.663-.051-1.071-.051-1.071 1.208 7.234 5.344 11.57 11.519 14.637zm-7.378-14.34c-1.003-3.051-6.845-14.945-12.137-16.668-1.685-.725-4.19-1.158-6.154-1.623 7.027.614 10.395.423 15.946 10.93a49.546 49.546 0 0 1 1.487 3.197c-1.436-11.54-5.582-17.24-10.846-21.318-3.648-2.435-6.475-2.744-8.746-3.128 2.506.069 5.496.07 9.35 2.201 3.938 2.519 6.56 5.138 9.197 11.79.187.442.313.824.39 1.096l.136.417c1.44 4.61 1.52 8.234 1.377 13.107zm-23.673-9.001c-5.173-5.313-9.426-12.237-9.018-19.61.592 7.845 6.243 15.355 11.747 21.259-10.64-1.417-17.869-8.554-23.97-16.924 9.093 10.028 15.102 13.12 21.241 15.275zm-28.39-25.704c-.008.008-.008.017-.017.025 2.7-1.06 7.93-.104 10.268 3.672-2.38-3.015-7.532-4.369-10.727-3.204 1.025-3.33 5.905-4.234 9.29-3.757-2.151 0-5.38.515-7.258 1.725-.869.54-1.037.876-1.556 1.539zM65.052 56.38c4.781-7.167 3.875-3.436 7.437-13.345.396-1.141 1.636-4.726 2.465-6.588-.017.085-.119.45-.272 1.012-2.725 10.898-3.476 12.602-7.48 17.272 7.542-4.522 12.217-8.705 16.15-16.61-2.627 8.83-10.08 15.031-18.3 18.259zM62.34 42.134v-.009c0-10.977 6.37-22.554 16.465-21.292-11.732 0-15.657 16.659-15.657 20.315 5.288-6.34 14.542-11.863 24.03-13.592-8.076 2.49-18.5 8.38-24.846 15.198.008-.204.008-.416.008-.62zM45.612 65.73c5.485.176 10.265-2.47 13.957-6.469-3.39 5.332-10.541 8.405-15.997 6.596 8.146-2.72 14.043-10.307 15.793-18.87-.658 8.224-5.051 14.518-12.002 18.054-1.49.69-.9.324-1.75.689z"/><path d="M99.98 33.068z" fill="#26120b"/></svg>